<?xml version="1.0" encoding="UTF-8"?>
<svg width="80px" height="80px" viewBox="0 0 80 80" version="1.1" xmlns="http://www.w3.org/2000/svg" xmlns:xlink="http://www.w3.org/1999/xlink">
    <title>leaf-pattern</title>
    <g id="Page-1" stroke="none" stroke-width="1" fill="none" fill-rule="evenodd" fill-opacity="0.08">
        <g id="leaf-pattern" fill="#63656A" fill-rule="nonzero">
            <path d="M0.46875,18.4111328 C0.6640625,18.6064453 0.9199219,18.7041016 1.1757812,18.7041016 C1.4316405,18.7041016 1.6875,18.6064454 1.8828124,18.4111328 L3.178955,17.1160278 C4.6777343,18.2879638 6.4954833,18.8769531 8.3339843,18.8769531 C10.5830077,18.8769531 12.8574218,18.0039062 14.5976562,16.2646484 C19.0820312,11.7822265 18.84375,1.4677734 18.8320312,1.03125 C18.8164062,0.4951172 18.3808593,0.0664062 17.84375,0.0595703 C17.4033203,0.0556641 6.9306641,-0.0195313 2.6171875,4.2910156 C0.9707031,5.9365234 0.0410156,8.1044922 0.0009766,10.3964844 C-0.03479,12.3574219 0.5895996,14.2059326 1.7641602,15.7026367 L0.46875,16.9970703 C0.078125,17.3867188 0.078125,18.0205078 0.46875,18.4111328 Z M16.262207,7.7509766 L12.6434326,7.6583863 L16.7680664,3.5368043 C16.6973877,4.7158203 16.5513916,6.2019653 16.262207,7.7509766 Z M14.6455078,12.7943115 L7.6826172,12.6155395 L10.6907959,9.6096191 L15.8063965,9.7406005 C15.5109863,10.8140259 15.1339111,11.8600464 14.6455078,12.7943115 Z M11.2281494,6.2455444 L11.1363525,2.6859741 C12.6672363,2.3988647 14.1408691,2.2420654 15.3181152,2.1585083 L11.2281494,6.2455444 Z M9.2770996,8.1951904 L6.267334,11.2026977 L6.0891113,4.2682495 C7.0179443,3.7967529 8.067749,3.4299927 9.1467285,3.1382446 L9.2770996,8.1951904 Z M4.6091309,15.6868286 L5.7301026,14.5666504 L13.2634278,14.7601318 C13.2358399,14.7888183 13.21167,14.8225097 13.1835938,14.8505859 C10.8033447,17.2255249 7.1522217,17.5161133 4.6091309,15.6868286 Z M2,10.4316406 C2.0322266,8.6611328 2.7529297,6.9833984 4.03125,5.7050781 C4.0594482,5.6769409 4.09375,5.6526489 4.1226807,5.6249389 L4.3161621,13.1524658 L3.1938476,14.2740478 C2.3981934,13.1729736 1.9748535,11.8428345 2,10.4316406 Z" id="Shape"></path>
            <path d="M20.8574219,18.4111328 C21.0527344,18.6064453 21.3085938,18.7041016 21.5644531,18.7041016 C21.8203124,18.7041016 22.0761719,18.6064454 22.2714843,18.4111328 L23.5673827,17.1160278 C25.0662841,18.288208 26.8840331,18.8779297 28.7216796,18.8779297 C30.970703,18.8779297 33.2451171,18.0039063 34.9853515,16.2646485 C39.4707031,11.7822266 39.2314453,1.4677735 39.2197265,1.0312501 C39.2041015,0.4951173 38.7685546,0.0664063 38.2314453,0.0595704 C37.7919922,0.0556642 27.3183594,-0.0195312 23.0058594,4.2910157 C21.359375,5.9365235 20.4296875,8.1044923 20.3886719,10.3964845 C20.3537598,12.3582765 20.9782715,14.2061769 22.15271,15.7026368 L20.8574219,16.9970704 C20.4667969,17.3867188 20.4667969,18.0205078 20.8574219,18.4111328 Z M36.6477051,7.7509155 L33.0314942,7.6583862 L37.1540528,3.5384521 C37.0831299,4.7172852 36.9367676,6.2028198 36.6477051,7.7509155 Z M35.0324707,12.7943115 L28.0710449,12.6155395 L31.0788574,9.6096191 L36.1921386,9.7405395 C35.8969727,10.8140869 35.5202637,11.8603516 35.0324707,12.7943115 Z M31.6160889,6.2456055 L31.5249024,2.685669 C33.0556641,2.3985596 34.5288086,2.2418824 35.7060547,2.1583863 L31.6160889,6.2456055 Z M29.6647949,8.1955566 L26.6557617,11.2025146 L26.4768066,4.2684326 C27.4057617,3.7966919 28.4559326,3.4298706 29.5351562,3.1380005 L29.6647949,8.1955566 Z M24.9973145,15.6871338 L26.1185303,14.5666504 L33.6511231,14.7601318 C33.6235352,14.7888183 33.5993653,14.8225097 33.5712891,14.8505859 C31.1936035,17.227478 27.5407715,17.5188599 24.9973145,15.6871338 Z M22.3876953,10.4316406 C22.4199219,8.6611328 23.1416015,6.9833984 24.4199219,5.7050781 C24.447876,5.677185 24.4819336,5.6530151 24.5104981,5.6255493 L24.704834,13.1522827 L23.5820313,14.2742309 C22.7858887,13.1730957 22.3625488,11.8428955 22.3876953,10.4316406 Z" id="Shape"></path>
            <path d="M41.2451172,18.4111328 C41.4404297,18.6064453 41.6962891,18.7041016 41.9521484,18.7041016 C42.2080077,18.7041016 42.4638672,18.6064454 42.6591796,18.4111328 L43.9552001,17.1159668 C45.4541015,18.2879639 47.2717284,18.8769531 49.1103515,18.8769531 C51.3593749,18.8769531 53.6328124,18.0039062 55.3730468,16.2646484 C59.8583984,11.7822265 59.6191406,1.4677734 59.6074218,1.03125 C59.5917968,0.4951172 59.1562499,0.0664062 58.6191406,0.0595703 C58.180664,0.0556641 47.7060547,-0.0195313 43.3935547,4.2910156 C41.7470703,5.9365234 40.8173828,8.1044922 40.7763672,10.3964844 C40.7414551,12.3582764 41.3659668,14.2061768 42.5404053,15.7026367 L41.2451172,16.9970703 C40.8544922,17.3867188 40.8544922,18.0205078 41.2451172,18.4111328 Z M57.0354004,7.7509155 L53.4191895,7.6583862 L57.5417481,3.5384521 C57.4708252,4.7172852 57.3244629,6.2028198 57.0354004,7.7509155 Z M55.420166,12.7942505 L48.4587402,12.6154785 L51.4665527,9.6096191 L56.5798339,9.7405395 C56.284668,10.8140869 55.907959,11.8602905 55.420166,12.7942505 Z M52.0037842,6.2456055 L51.9125977,2.685669 C53.4433594,2.3985596 54.9165039,2.2418824 56.09375,2.1583863 L52.0037842,6.2456055 Z M50.0524902,8.1955566 L47.043457,11.2025146 L46.8645019,4.2684326 C47.793457,3.7966919 48.8436279,3.4298706 49.9228515,3.1380005 L50.0524902,8.1955566 Z M45.385498,15.6867065 L46.5062255,14.5666503 L54.0388183,14.7601317 C54.0112304,14.7888182 53.9870605,14.8225096 53.9589843,14.8505858 C51.5812988,17.2255859 47.9287109,17.5161133 45.385498,15.6867065 Z M42.7753906,10.4316406 C42.8076172,8.6611328 43.5292968,6.9833984 44.8076172,5.7050781 C44.8355713,5.677185 44.8696289,5.6530151 44.8981934,5.6255493 L45.0925293,13.1522827 L43.9697266,14.2742309 C43.173584,13.1730957 42.7502441,11.8428955 42.7753906,10.4316406 Z" id="Shape"></path>
            <path d="M61.6328125,18.4111328 C61.828125,18.6064453 62.0839844,18.7041016 62.3398437,18.7041016 C62.595703,18.7041016 62.8515625,18.6064454 63.0468749,18.4111328 L64.3430175,17.1160278 C65.8417968,18.2879638 67.6595458,18.8769531 69.4980468,18.8769531 C71.7470702,18.8769531 74.0214843,18.0039062 75.7617187,16.2646484 C80.2460937,11.7822265 80.0078125,1.4677734 79.9960937,1.03125 C79.9804687,0.4951172 79.5449218,0.0664062 79.0078125,0.0595703 C78.5703125,0.0556641 68.0947266,-0.0195313 63.78125,4.2910156 C62.1347656,5.9365234 61.2050781,8.1044922 61.1640625,10.3964844 C61.1291504,12.3582764 61.7536621,14.2062378 62.9282227,15.7026978 L61.6328125,16.9970704 C61.2421875,17.3867188 61.2421875,18.0205078 61.6328125,18.4111328 Z M77.4262695,7.7509766 L73.8074951,7.6583863 L77.9321289,3.5368043 C77.8614502,4.7158203 77.7154541,6.2019653 77.4262695,7.7509766 Z M75.8095703,12.7943115 L68.8466797,12.6155395 L71.8548584,9.6096191 L76.970459,9.7406005 C76.6750488,10.8140259 76.2979736,11.8600464 75.8095703,12.7943115 Z M72.3922119,6.2455444 L72.300415,2.6859741 C73.8312988,2.3988647 75.3049316,2.2420654 76.4821777,2.1585083 L72.3922119,6.2455444 Z M70.4411621,8.1951904 L67.4313965,11.2026977 L67.2531738,4.2682495 C68.1820068,3.7967529 69.2318115,3.4299927 70.310791,3.1382446 L70.4411621,8.1951904 Z M65.7731934,15.6868286 L66.8941651,14.5666504 L74.4274903,14.7601318 C74.3999024,14.7888183 74.3757325,14.8225097 74.3476563,14.8505859 C71.9674072,17.2255249 68.3162842,17.5161133 65.7731934,15.6868286 Z M63.1630859,10.4316406 C63.1953125,8.6611328 63.9169921,6.9833984 65.1953125,5.7050781 C65.2235107,5.6769409 65.2578125,5.6526489 65.2867432,5.6249389 L65.4802246,13.1524658 L64.3575439,14.274292 C63.5614014,13.1732178 63.1379395,11.8429565 63.1630859,10.4316406 Z" id="Shape"></path>
            <path d="M1.7644043,36.0742798 L0.46875,37.3691406 C0.078125,37.758789 0.078125,38.3925781 0.46875,38.7832031 C0.6640625,38.9785156 0.9199219,39.0761719 1.1757812,39.0761719 C1.4316405,39.0761719 1.6875,38.9785157 1.8828124,38.7832031 L3.1794433,37.4874878 C4.6782226,38.6594238 6.4964599,39.2490234 8.3339843,39.2490234 C10.5830077,39.2490234 12.8574218,38.375 14.5976562,36.6357422 C19.0820312,32.1542969 18.84375,21.8388672 18.8320312,21.4023438 C18.8164062,20.866211 18.3808593,20.4365235 17.84375,20.4306559 C17.3876953,20.4316407 6.9296875,20.3525391 2.6171875,24.663086 C0.9707031,26.3085938 0.0410156,28.4765626 0.0009766,30.7675782 C-0.03479,32.7296143 0.5897217,34.5776978 1.7644043,36.0742798 Z M16.2600098,28.1228638 L12.6435547,28.0297242 L16.7664795,23.9094849 C16.6955566,25.088623 16.5490723,26.5744629 16.2600098,28.1228638 Z M14.6442871,33.1663818 L7.682373,32.9875488 L10.6911621,29.9807739 L15.8044433,30.1124878 C15.5090332,31.1861572 15.1320801,32.2324219 14.6442871,33.1663818 Z M11.2281494,26.6169434 L11.1363525,23.0573731 C12.6673584,22.7700196 14.1408691,22.6132203 15.3182373,22.5296021 L11.2281494,26.6169434 Z M9.2770996,28.5667114 L6.267334,31.5744629 L6.0891113,24.6401978 C7.0178222,24.1686402 8.067749,23.8017579 9.1467285,23.5098877 L9.2770996,28.5667114 Z M4.609375,36.0583496 L5.7298584,34.9387207 L13.2625732,35.1322021 C13.2352294,35.1605834 13.2114257,35.1939086 13.1835937,35.2216796 C10.8059082,37.5983887 7.1535645,37.8890381 4.609375,36.0583496 Z M4.03125,26.0771484 C4.0594482,26.0490112 4.09375,26.0247192 4.1226807,25.9970092 L4.3161621,33.524353 L3.1940918,34.6455688 C2.3983154,33.5444336 1.9748535,32.2141113 2,30.8027344 C2.0322266,29.0332031 2.7529297,27.3544922 4.03125,26.0771484 Z" id="Shape"></path>
            <path d="M22.1530762,36.0742188 L20.8574219,37.3691407 C20.4667969,37.7587891 20.4667969,38.3925782 20.8574219,38.7832032 C21.0527344,38.9785157 21.3085938,39.076172 21.5644531,39.076172 C21.8203124,39.076172 22.0761719,38.9785158 22.2714843,38.7832032 L23.567871,37.487671 C25.0666503,38.6600953 26.8842772,39.2490235 28.7226562,39.2490235 C30.9716796,39.2490235 33.2451171,38.3750001 34.9853515,36.6357423 C39.4707031,32.154297 39.2314453,21.8388673 39.2197265,21.4023439 C39.2041015,20.8662111 38.7685546,20.4365236 38.2314453,20.430656 C37.7832031,20.4316408 27.3183594,20.3525392 23.0058594,24.6630861 C21.359375,26.3085939 20.4296875,28.4765627 20.3886719,30.7675783 C20.3537598,32.7295532 20.9783936,34.5776367 22.1530762,36.0742188 Z M36.6501465,28.1229248 L33.0314942,28.0297241 L37.1557618,23.907959 C37.0852051,25.0872192 36.939209,26.5736694 36.6501465,28.1229248 Z M35.0332031,33.1663818 L28.0705566,32.9875488 L31.0793457,29.9807739 L36.194458,30.1125488 C35.8990479,31.1860352 35.5217285,32.2321167 35.0332031,33.1663818 Z M31.6160889,26.6170044 L31.5249024,23.0573731 C33.055542,22.7701417 34.5288086,22.6132813 35.7059327,22.5296631 L31.6160889,26.6170044 Z M29.6647949,28.5670776 L26.6557617,31.5742187 L26.4768066,24.6405029 C27.4057617,24.1687622 28.4559326,23.8017578 29.5351562,23.5098266 L29.6647949,28.5670776 Z M24.9980469,36.0582886 L26.1182862,34.9387207 L33.6503907,35.1322021 C33.6229249,35.1605834 33.5991212,35.1939086 33.5712891,35.2216796 C31.1921387,37.5991211 27.5405273,37.8876343 24.9980469,36.0582886 Z M24.4199219,26.0771484 C24.447876,26.0492553 24.4819336,26.0250854 24.5104981,25.9976196 L24.704834,33.5241699 L23.5825195,34.6457519 C22.7861328,33.5445556 22.3625488,32.2142333 22.3876953,30.8027343 C22.4199219,29.0332031 23.1416016,27.3544922 24.4199219,26.0771484 Z" id="Shape"></path>
            <path d="M42.5407715,36.0742188 L41.2451172,37.3691407 C40.8544922,37.7587891 40.8544922,38.3925782 41.2451172,38.7832032 C41.4404297,38.9785157 41.6962891,39.076172 41.9521484,39.076172 C42.2080077,39.076172 42.4638672,38.9785158 42.6591796,38.7832032 L43.9556884,37.4874879 C45.4545898,38.6594239 47.2728271,39.2490235 49.1103515,39.2490235 C51.3593749,39.2490235 53.633789,38.3750001 55.3730468,36.6357423 C59.8583984,32.154297 59.6191406,21.8388673 59.6074218,21.4023439 C59.5917968,20.8662111 59.1562499,20.4365236 58.6191406,20.430656 C58.1787109,20.4316408 47.7060547,20.3525392 43.3935547,24.6630861 C41.7470703,26.3085939 40.8173828,28.4765627 40.7763672,30.7675783 C40.7414551,32.7295532 41.3660889,34.5776367 42.5407715,36.0742188 Z M57.0378418,28.1229248 L53.4191895,28.0297241 L57.5434571,23.907959 C57.4729004,25.0872192 57.3269043,26.5736694 57.0378418,28.1229248 Z M55.4208984,33.1663818 L48.4582519,32.9875488 L51.467041,29.9807739 L56.5821533,30.1124878 C56.2867432,31.1859741 55.9095459,32.2321777 55.4208984,33.1663818 Z M52.0037842,26.6170044 L51.9125977,23.0573731 C53.4432373,22.7701417 54.9165039,22.6132813 56.093628,22.5296631 L52.0037842,26.6170044 Z M50.0524902,28.5670776 L47.043457,31.5742187 L46.8645019,24.6405029 C47.793457,24.1687622 48.8436279,23.8017578 49.9228515,23.5098266 L50.0524902,28.5670776 Z M45.3857422,36.0582886 L46.5059815,34.9387207 L54.038086,35.1321411 C54.0106202,35.1605224 53.9868165,35.1939087 53.9589844,35.2216797 C51.5831299,37.5984497 47.9299316,37.8890991 45.3857422,36.0582886 Z M44.8076172,26.0771484 C44.8355713,26.0492553 44.8696289,26.0250854 44.8981934,25.9976196 L45.0925293,33.5241699 L43.9702148,34.6457519 C43.1738281,33.5445556 42.7502441,32.2142333 42.7753906,30.8027343 C42.8076172,29.0332031 43.5292969,27.3544922 44.8076172,26.0771484 Z" id="Shape"></path>
            <path d="M79.0078125,20.4306559 C78.5556641,20.4316407 68.0947266,20.3525391 63.78125,24.663086 C62.1347656,26.3085938 61.2050781,28.4765626 61.1640625,30.7675782 C61.1291504,32.7296143 61.7537842,34.5776978 62.9284668,36.0742799 L61.6328125,37.3691407 C61.2421875,37.7587891 61.2421875,38.3925782 61.6328125,38.7832032 C61.828125,38.9785157 62.0839844,39.076172 62.3398437,39.076172 C62.595703,39.076172 62.8515625,38.9785158 63.0468749,38.7832032 L64.3435058,37.4874879 C65.8422851,38.6594239 67.6605224,39.2490235 69.4980468,39.2490235 C71.7470702,39.2490235 74.0214843,38.3750001 75.7617187,36.6357423 C80.2460937,32.154297 80.0078125,21.8388673 79.9960937,21.4023439 C79.9804688,20.8662109 79.5449219,20.4365234 79.0078125,20.4306559 Z M75.8083496,33.1663818 L68.8464355,32.9875488 L71.8552246,29.9807739 L76.9685058,30.1124878 C76.6730957,31.1861572 76.2961426,32.2324219 75.8083496,33.1663818 Z M72.3922119,26.6169434 L72.300415,23.057373 C73.8314209,22.7700195 75.3049316,22.6132202 76.4822998,22.529602 L72.3922119,26.6169434 Z M70.4411621,28.5667114 L67.4313965,31.5744629 L67.2531738,24.6401978 C68.1818847,24.1686402 69.2318115,23.8017579 70.310791,23.5098877 L70.4411621,28.5667114 Z M73.8076172,28.0297241 L77.930542,23.9094848 C77.8596191,25.088623 77.7131348,26.5744628 77.4240723,28.1228637 L73.8076172,28.0297241 Z M63.1630859,30.8027344 C63.1953125,29.0332032 63.9169921,27.3544922 65.1953125,26.0771485 C65.2235107,26.0490113 65.2578125,26.0247193 65.2867432,25.9970093 L65.4802246,33.5243531 L64.3579101,34.6458741 C63.5615234,33.5446777 63.1379395,32.2142334 63.1630859,30.8027344 Z M65.7736816,36.0582886 L66.8939209,34.9387207 L74.4266357,35.1322021 C74.3992919,35.1605834 74.3754882,35.1939086 74.3476562,35.2216796 C71.9691162,37.5984497 68.3181152,37.8890991 65.7736816,36.0582886 Z" id="Shape"></path>
            <path d="M1.7641602,56.4458008 L0.46875,57.7402344 C0.078125,58.1298828 0.078125,58.7636719 0.46875,59.1542969 C0.6640625,59.3496094 0.9199219,59.4472657 1.1757812,59.4472657 C1.4316405,59.4472657 1.6875,59.3496095 1.8828124,59.1542969 L3.178955,57.8591919 C4.6777343,59.0311279 6.4954833,59.6201172 8.3339843,59.6201172 C10.5830077,59.6201172 12.8574218,58.7470703 14.5976562,57.0078125 C19.0820312,52.5253906 18.84375,42.2109375 18.8320312,41.7744141 C18.8164062,41.2382813 18.3808593,40.8095703 17.84375,40.8027344 C17.4042969,40.8076172 6.9306641,40.7246094 2.6171875,45.0341797 C0.9707031,46.6796875 0.0410156,48.8476563 0.0009766,51.1396485 C-0.03479,53.1005859 0.5895996,54.9490967 1.7641602,56.4458008 Z M16.262207,48.4941406 L12.6434326,48.4015503 L16.7680664,44.2799683 C16.6973877,45.4589844 16.5513916,46.9451294 16.262207,48.4941406 Z M14.6455078,53.5374756 L7.6826172,53.3587036 L10.6907959,50.3527832 L15.8063965,50.4837646 C15.5109863,51.5571899 15.1339111,52.6032104 14.6455078,53.5374756 Z M11.2281494,46.9887085 L11.1363525,43.4291382 C12.6672363,43.1420288 14.1408691,42.9852295 15.3181152,42.9016724 L11.2281494,46.9887085 Z M9.2770996,48.9383545 L6.267334,51.9458618 L6.0891113,45.0114136 C7.0179443,44.539917 8.067749,44.1731568 9.1467285,43.8814087 L9.2770996,48.9383545 Z M4.6092529,56.4298096 L5.7301025,55.3098145 L13.2634277,55.5032959 C13.2358398,55.5319824 13.2116699,55.5656738 13.1835937,55.59375 C10.8034668,57.968689 7.1523438,58.2584229 4.6092529,56.4298096 Z M4.03125,46.4482422 C4.0594482,46.420105 4.09375,46.395813 4.1226807,46.368103 L4.3161621,53.8956299 L3.1938476,55.0172119 C2.3981934,53.9161377 1.9748535,52.5859985 2,51.1748047 C2.0322266,49.4042969 2.7529297,47.7265625 4.03125,46.4482422 Z" id="Shape"></path>
            <path d="M22.15271,56.4458008 L20.8574219,57.7402344 C20.4667969,58.1298828 20.4667969,58.7636719 20.8574219,59.1542969 C21.0527344,59.3496094 21.3085938,59.4472657 21.5644531,59.4472657 C21.8203124,59.4472657 22.0761719,59.3496095 22.2714843,59.1542969 L23.5673827,57.8591919 C25.0662841,59.0313721 26.8840331,59.6210938 28.7216796,59.6210938 C30.970703,59.6210938 33.2451171,58.7470704 34.9853515,57.0078126 C39.4707031,52.5253907 39.2314453,42.2109376 39.2197265,41.7744142 C39.2041015,41.2382814 38.7685546,40.8095704 38.2314453,40.8027345 C37.7978515,40.8076173 27.3173828,40.7246095 23.0058594,45.0341798 C21.359375,46.6796876 20.4296875,48.8476564 20.3886719,51.1396486 C20.3537598,53.1014404 20.9782715,54.9493408 22.15271,56.4458008 Z M36.6477051,48.4940796 L33.0314942,48.4015503 L37.1540528,44.2816162 C37.0831299,45.4604492 36.9367676,46.9459839 36.6477051,48.4940796 Z M35.0324707,53.5374756 L28.0710449,53.3587036 L31.0788574,50.3527832 L36.1921386,50.4837036 C35.8969727,51.557251 35.5202637,52.6035156 35.0324707,53.5374756 Z M31.6160889,46.9887695 L31.5249024,43.428833 C33.0556641,43.1417236 34.5288086,42.9850464 35.7060547,42.9015503 L31.6160889,46.9887695 Z M29.6647949,48.9387207 L26.6557617,51.9456787 L26.4768066,45.0115967 C27.4057617,44.539856 28.4559326,44.1730347 29.5351562,43.8811646 L29.6647949,48.9387207 Z M24.9974365,56.4301147 L26.1185303,55.3098144 L33.6511231,55.5032958 C33.6235352,55.5319823 33.5993653,55.5656737 33.5712891,55.5937499 C31.1936035,57.9705811 27.5407715,58.2611694 24.9974365,56.4301147 Z M24.4199219,46.4482422 C24.447876,46.4203491 24.4819336,46.3961792 24.5104981,46.3687134 L24.704834,53.8954468 L23.5820313,55.017395 C22.7858887,53.9162597 22.3625489,52.5860596 22.3876954,51.1748047 C22.4199219,49.4042969 23.1416016,47.7265625 24.4199219,46.4482422 Z" id="Shape"></path>
            <path d="M42.5404053,56.4458008 L41.2451172,57.7402344 C40.8544922,58.1298828 40.8544922,58.7636719 41.2451172,59.1542969 C41.4404297,59.3496094 41.6962891,59.4472657 41.9521484,59.4472657 C42.2080077,59.4472657 42.4638672,59.3496095 42.6591796,59.1542969 L43.9552001,57.8591309 C45.4541015,59.031128 47.2717284,59.6201172 49.1103515,59.6201172 C51.3593749,59.6201172 53.6328124,58.7470703 55.3730468,57.0078125 C59.8583984,52.5253906 59.6191406,42.2109375 59.6074218,41.7744141 C59.5917968,41.2382813 59.1562499,40.8095703 58.6191406,40.8027344 C58.1728515,40.8076172 47.7060547,40.7246094 43.3935547,45.0341797 C41.7470703,46.6796875 40.8173828,48.8476563 40.7763672,51.1396485 C40.7414551,53.1014404 41.3659668,54.9493408 42.5404053,56.4458008 Z M57.0354004,48.4940796 L53.4191895,48.4015503 L57.5417481,44.2816162 C57.4708252,45.4604492 57.3244629,46.9459839 57.0354004,48.4940796 Z M55.420166,53.5374146 L48.4587402,53.3586426 L51.4665527,50.3527832 L56.5798339,50.4837036 C56.284668,51.557251 55.907959,52.6034546 55.420166,53.5374146 Z M52.0037842,46.9887695 L51.9125977,43.428833 C53.4433594,43.1417236 54.9165039,42.9850464 56.09375,42.9015503 L52.0037842,46.9887695 Z M50.0524902,48.9387207 L47.043457,51.9456787 L46.8645019,45.0115967 C47.793457,44.539856 48.8436279,44.1730347 49.9228515,43.8811646 L50.0524902,48.9387207 Z M45.385498,56.4297485 L46.5062255,55.3098144 L54.0388183,55.5032958 C54.0112304,55.5319823 53.9870605,55.5656737 53.9589843,55.5937499 C51.5812988,57.968689 47.9289551,58.2584229 45.385498,56.4297485 Z M44.8076172,46.4482422 C44.8355713,46.4203491 44.8696289,46.3961792 44.8981934,46.3687134 L45.0925293,53.8954468 L43.9697266,55.017395 C43.173584,53.9162597 42.7502442,52.5860596 42.7753907,51.1748047 C42.8076172,49.4042969 43.5292969,47.7265625 44.8076172,46.4482422 Z" id="Shape"></path>
            <path d="M79.0078125,40.8027344 C78.5664063,40.8076172 68.0947266,40.7246094 63.78125,45.0341797 C62.1347656,46.6796875 61.2050781,48.8476563 61.1640625,51.1396485 C61.1291504,53.1014405 61.7536621,54.9494019 62.9282227,56.4458619 L61.6328125,57.7402345 C61.2421875,58.1298829 61.2421875,58.763672 61.6328125,59.154297 C61.828125,59.3496095 62.0839844,59.4472658 62.3398437,59.4472658 C62.595703,59.4472658 62.8515625,59.3496096 63.0468749,59.154297 L64.3430175,57.859192 C65.8417968,59.031128 67.6595458,59.6201173 69.4980468,59.6201173 C71.7470702,59.6201173 74.0214843,58.7470704 75.7617187,57.0078126 C80.2460937,52.5253907 80.0078125,42.2109376 79.9960937,41.7744142 C79.9804688,41.2382812 79.5449219,40.8095703 79.0078125,40.8027344 Z M75.8095703,53.5374756 L68.8466797,53.3587036 L71.8548584,50.3527832 L76.970459,50.4837646 C76.6750488,51.5571899 76.2979736,52.6032104 75.8095703,53.5374756 Z M72.3922119,46.9887085 L72.300415,43.4291382 C73.8312988,43.1420288 75.3049316,42.9852295 76.4821777,42.9016724 L72.3922119,46.9887085 Z M70.4411621,48.9383545 L67.4313965,51.9458618 L67.2531738,45.0114136 C68.1820068,44.539917 69.2318115,44.1731568 70.310791,43.8814087 L70.4411621,48.9383545 Z M73.8074951,48.4015503 L77.9321289,44.2799683 C77.8614502,45.4589844 77.7154541,46.9451294 77.4262695,48.4941407 L73.8074951,48.4015503 Z M63.1630859,51.1748047 C63.1953125,49.4042969 63.9169921,47.7265625 65.1953125,46.4482422 C65.2235107,46.420105 65.2578125,46.395813 65.2867432,46.368103 L65.4802246,53.8956299 L64.3575439,55.0174561 C63.5614014,53.9163818 63.1379395,52.5861206 63.1630859,51.1748047 Z M65.7733154,56.4298096 L66.894165,55.3098145 L74.4274902,55.5032959 C74.3999023,55.5319824 74.3757324,55.5656738 74.3476562,55.59375 C71.9675293,57.968689 68.3164062,58.2584229 65.7733154,56.4298096 Z" id="Shape"></path>
            <path d="M0.46875,79.5263672 C0.6640625,79.7216797 0.9199219,79.819336 1.1757812,79.819336 C1.4316405,79.819336 1.6875,79.7216798 1.8828124,79.5263672 L3.1794433,78.2306519 C4.6782226,79.4025879 6.4964599,79.9921875 8.3339843,79.9921875 C10.5830077,79.9921875 12.8574218,79.1181641 14.5976562,77.3789063 C19.0820312,72.897461 18.84375,62.5820313 18.8320312,62.1455079 C18.8164062,61.6093751 18.3808593,61.1796876 17.84375,61.1738282 C17.3876953,61.1669923 6.9296875,61.0957032 2.6171875,65.4062501 C0.9707031,67.0517579 0.0410156,69.2197267 0.0009766,71.5107423 C-0.03479,73.4727784 0.5897217,75.3208619 1.7644043,76.817444 L0.46875,78.1123047 C0.078125,78.5019531 0.078125,79.1357422 0.46875,79.5263672 Z M16.2600098,68.8660278 L12.6435547,68.7728882 L16.7664795,64.6526489 C16.6955566,65.8317871 16.5490723,67.317627 16.2600098,68.8660278 Z M14.6442871,73.9095459 L7.682373,73.7307129 L10.6911621,70.723938 L15.8044433,70.8556519 C15.5090332,71.9293213 15.1320801,72.9755859 14.6442871,73.9095459 Z M11.2281494,67.3601074 L11.1363525,63.8005371 C12.6673584,63.5131836 14.1408691,63.3563843 15.3182373,63.2727661 L11.2281494,67.3601074 Z M9.2770996,69.3098755 L6.267334,72.317627 L6.0891113,65.3833619 C7.0178222,64.9118043 8.067749,64.544922 9.1467285,64.2530518 L9.2770996,69.3098755 Z M4.609375,76.8015137 L5.7298584,75.6818848 L13.2625732,75.8753662 C13.2352294,75.9037475 13.2114257,75.9370727 13.1835937,75.9648437 C10.8059082,78.3415527 7.1535645,78.6322021 4.609375,76.8015137 Z M2,71.5458984 C2.0322266,69.7763672 2.7529297,68.0976562 4.03125,66.8203125 C4.0594482,66.7921753 4.09375,66.7678833 4.1226807,66.7401733 L4.3161621,74.2675171 L3.1940918,75.3887329 C2.3983154,74.2875977 1.9748535,72.9572754 2,71.5458984 Z" id="Shape"></path>
            <path d="M22.1530762,76.8173828 L20.8574219,78.1123047 C20.4667969,78.5019531 20.4667969,79.1357422 20.8574219,79.5263672 C21.0527344,79.7216797 21.3085938,79.819336 21.5644531,79.819336 C21.8203124,79.819336 22.0761719,79.7216798 22.2714843,79.5263672 L23.567871,78.230835 C25.0666503,79.4032593 26.8842772,79.9921875 28.7226562,79.9921875 C30.9716796,79.9921875 33.2451171,79.1181641 34.9853515,77.3789063 C39.4707031,72.897461 39.2314453,62.5820313 39.2197265,62.1455079 C39.2041015,61.6093751 38.7685546,61.1796876 38.2314453,61.1738282 C37.7832031,61.1669923 27.3183594,61.0957032 23.0058594,65.4062501 C21.359375,67.0517579 20.4296875,69.2197267 20.3886719,71.5107423 C20.3537598,73.4727173 20.9783936,75.3208008 22.1530762,76.8173828 Z M36.6501465,68.8660889 L33.0314942,68.7728882 L37.1557618,64.6511231 C37.0852051,65.8303833 36.939209,67.3168335 36.6501465,68.8660889 Z M35.0332031,73.9095459 L28.0705566,73.7307129 L31.0793457,70.723938 L36.194458,70.8557129 C35.8990479,71.9291992 35.5217285,72.9752808 35.0332031,73.9095459 Z M31.6160889,67.3601685 L31.5249024,63.8005372 C33.055542,63.5133058 34.5288086,63.3564454 35.7059327,63.2728272 L31.6160889,67.3601685 Z M29.6647949,69.3102417 L26.6557617,72.3173828 L26.4768066,65.383667 C27.4057617,64.9119263 28.4559326,64.5449219 29.5351562,64.2529907 L29.6647949,69.3102417 Z M24.9980469,76.8014526 L26.1182862,75.6818847 L33.6503907,75.8753661 C33.6229249,75.9037474 33.5991212,75.9370726 33.5712891,75.9648436 C31.1921387,78.3414307 27.5405273,78.6306763 24.9980469,76.8014526 Z M24.4199219,66.8203125 C24.447876,66.7924194 24.4819336,66.7682495 24.5104981,66.7407837 L24.704834,74.267334 L23.5825195,75.388916 C22.7861328,74.2877197 22.3625488,72.9573974 22.3876953,71.5458984 C22.4199219,69.7763672 23.1416016,68.0976562 24.4199219,66.8203125 Z" id="Shape"></path>
            <path d="M42.5407715,76.8173828 L41.2451172,78.1123047 C40.8544922,78.5019531 40.8544922,79.1357422 41.2451172,79.5263672 C41.4404297,79.7216797 41.6962891,79.819336 41.9521484,79.819336 C42.2080077,79.819336 42.4638672,79.7216798 42.6591796,79.5263672 L43.9556884,78.2306519 C45.4545898,79.4025879 47.2728271,79.9921875 49.1103515,79.9921875 C51.3593749,79.9921875 53.633789,79.1181641 55.3730468,77.3789063 C59.8583984,72.897461 59.6191406,62.5820313 59.6074218,62.1455079 C59.5917968,61.6093751 59.1562499,61.1796876 58.6191406,61.1738282 C58.1787109,61.1669923 47.7060547,61.0957032 43.3935547,65.4062501 C41.7470703,67.0517579 40.8173828,69.2197267 40.7763672,71.5107423 C40.7414551,73.4727173 41.3660889,75.3208008 42.5407715,76.8173828 Z M57.0378418,68.8660889 L53.4191895,68.7728882 L57.5434571,64.6511231 C57.4729004,65.8303833 57.3269043,67.3168335 57.0378418,68.8660889 Z M55.4208984,73.9095459 L48.4582519,73.7307129 L51.467041,70.723938 L56.5821533,70.8556519 C56.2867432,71.9291382 55.9095459,72.9753418 55.4208984,73.9095459 Z M52.0037842,67.3601685 L51.9125977,63.8005372 C53.4432373,63.5133058 54.9165039,63.3564454 56.093628,63.2728272 L52.0037842,67.3601685 Z M50.0524902,69.3102417 L47.043457,72.3173828 L46.864502,65.383667 C47.7934571,64.9119263 48.843628,64.5449219 49.9228516,64.2529907 L50.0524902,69.3102417 Z M45.3857422,76.8014526 L46.5059815,75.6818847 L54.038086,75.8753051 C54.0106202,75.9036864 53.9868165,75.9370727 53.9589844,75.9648437 C51.5831299,78.3416138 47.9299316,78.6322632 45.3857422,76.8014526 Z M44.8076172,66.8203125 C44.8355713,66.7924194 44.8696289,66.7682495 44.8981934,66.7407837 L45.0925293,74.267334 L43.9702148,75.388916 C43.1738281,74.2877197 42.7502441,72.9573974 42.7753906,71.5458984 C42.8076172,69.7763672 43.5292969,68.0976562 44.8076172,66.8203125 Z" id="Shape"></path>
            <path d="M79.0078125,61.1738281 C78.5556641,61.1669922 68.0947266,61.0957031 63.78125,65.40625 C62.1347656,67.0517578 61.2050781,69.2197266 61.1640625,71.5107422 C61.1291504,73.4727783 61.7537842,75.3208618 62.9284668,76.8174439 L61.6328125,78.1123047 C61.2421875,78.5019531 61.2421875,79.1357422 61.6328125,79.5263672 C61.828125,79.7216797 62.0839844,79.819336 62.3398437,79.819336 C62.595703,79.819336 62.8515625,79.7216798 63.0468749,79.5263672 L64.3435058,78.2306519 C65.8422851,79.4025879 67.6605224,79.9921875 69.4980468,79.9921875 C71.7470702,79.9921875 74.0214843,79.1181641 75.7617187,77.3789063 C80.2460937,72.897461 80.0078125,62.5820313 79.9960937,62.1455079 C79.9804688,61.609375 79.5449219,61.1796875 79.0078125,61.1738281 Z M75.8083496,73.9095459 L68.8464355,73.7307129 L71.8552246,70.723938 L76.9685058,70.8556519 C76.6730957,71.9293213 76.2961426,72.9755859 75.8083496,73.9095459 Z M72.3922119,67.3601074 L72.300415,63.8005371 C73.8314209,63.5131836 75.3049316,63.3563843 76.4822998,63.2727661 L72.3922119,67.3601074 Z M70.4411621,69.3098755 L67.4313965,72.317627 L67.2531738,65.3833619 C68.1818847,64.9118043 69.2318115,64.544922 70.310791,64.2530518 L70.4411621,69.3098755 Z M73.8076172,68.7728882 L77.930542,64.6526489 C77.8596191,65.8317871 77.7131348,67.3176269 77.4240723,68.8660278 L73.8076172,68.7728882 Z M63.1630859,71.5458984 C63.1953125,69.7763672 63.9169921,68.0976562 65.1953125,66.8203125 C65.2235107,66.7921753 65.2578125,66.7678833 65.2867432,66.7401733 L65.4802246,74.2675171 L64.3579101,75.3890381 C63.5615234,74.2878418 63.1379395,72.9573975 63.1630859,71.5458984 Z M65.7736816,76.8014526 L66.8939209,75.6818847 L74.4266357,75.8753661 C74.3992919,75.9037474 74.3754882,75.9370726 74.3476562,75.9648436 C71.9691162,78.3416138 68.3181152,78.6322632 65.7736816,76.8014526 Z" id="Shape"></path>
        </g>
    </g>
</svg>