<?xml version="1.0" standalone="no"?>
<!DOCTYPE svg PUBLIC "-//W3C//DTD SVG 1.1//EN" "http://www.w3.org/Graphics/SVG/1.1/DTD/svg11.dtd" >
<svg>
<metadata>
Created by FontForge 20120731 at Wed Aug 21 17:50:11 2019
 By www
Copyright (c) 2012 by 205 Corp. All rights reserved.
</metadata>
<defs>
<font id="Maax-Bold" horiz-adv-x="1435" >
  <font-face 
    font-family="Maax"
    font-weight="700"
    font-stretch="normal"
    units-per-em="2048"
    panose-1="2 0 5 3 0 0 0 2 0 3"
    ascent="1589"
    descent="-459"
    x-height="1004"
    cap-height="1436"
    bbox="-80 -420 2087 1821"
    underline-thickness="151"
    underline-position="-115"
    unicode-range="U+0020-FB02"
  />
<missing-glyph horiz-adv-x="748" 
d="M68 0v1365h544v-1365h-544zM136 68h408v1229h-408v-1229z" />
    <glyph glyph-name=".notdef" horiz-adv-x="748" 
d="M68 0v1365h544v-1365h-544zM136 68h408v1229h-408v-1229z" />
    <glyph glyph-name="glyph1" horiz-adv-x="0" 
 />
    <glyph glyph-name="glyph2" horiz-adv-x="682" 
 />
    <glyph glyph-name="space" unicode=" " horiz-adv-x="571" 
 />
    <glyph glyph-name="exclam" unicode="!" horiz-adv-x="679" 
d="M164 160q0 74 50.5 125t123.5 51t125.5 -52t52.5 -124q0 -73 -52 -124.5t-126 -51.5q-73 0 -123.5 51t-50.5 125zM188 463v973h301v-973h-301z" />
    <glyph glyph-name="quotedbl" unicode="&#x22;" horiz-adv-x="980" 
d="M117 864v572h291v-572h-291zM571 864v572h291v-572h-291z" />
    <glyph glyph-name="numbersign" unicode="#" horiz-adv-x="1785" 
d="M129 322v274h293l74 248h-260v270h333l95 322h288l-92 -322h291l90 322h293l-94 -322h217v-270h-291l-72 -248h256v-274h-331l-91 -322h-292l94 322h-293l-92 -322h-291l94 322h-219zM713 596h291l73 248h-293z" />
    <glyph glyph-name="dollar" unicode="$" horiz-adv-x="1366" 
d="M92 252l209 211q107 -143 270 -189v320q-211 37 -327.5 146.5t-116.5 283.5q0 176 127 291q128 116 317 137v217h228v-223q247 -47 411 -217l-204 -215q-94 97 -207 137v-291q461 -83 461 -444q0 -174 -124 -290.5t-337 -141.5v-217h-228v219q-147 20 -271.5 91
t-207.5 175zM430 1038q0 -96 141 -137v273q-66 -14 -103.5 -49.5t-37.5 -86.5zM799 264q73 13 115 53.5t42 94.5q0 100 -157 141v-289z" />
    <glyph glyph-name="percent" unicode="%" horiz-adv-x="1722" 
d="M104 1149q0 128 91 219q90 90 221 90q127 0 217 -90t90 -219t-90 -219t-217 -90q-131 0 -221 90q-91 91 -91 219zM264 0l883 1436h311l-880 -1436h-314zM328 1149q0 -41 25.5 -66.5t62.5 -25.5q33 0 58.5 27t25.5 65q0 40 -25 66t-59 26q-37 0 -62.5 -25.5t-25.5 -66.5z
M999 285q0 130 91 221q90 90 221 90q127 0 217 -90t90 -221q0 -129 -90 -219q-89 -89 -217 -89q-132 0 -221 89q-91 91 -91 219zM1221 285q0 -40 26 -65t64 -25q33 0 58.5 26.5t25.5 63.5q0 41 -25 67.5t-59 26.5q-38 0 -64 -26t-26 -68z" />
    <glyph glyph-name="ampersand" unicode="&#x26;" 
d="M94 408q0 135 68.5 242t191.5 169l15 8q-117 150 -117 293q0 148 110 242q113 96 289 96q170 0 279 -100q110 -101 110 -244q0 -108 -52.5 -187t-172.5 -159l-29 -20l170 -209q47 96 74 209h305q-54 -273 -194 -459l225 -289h-350l-76 88q-153 -111 -360 -111
q-236 0 -363 127q-123 126 -123 304zM389 422q0 -73 56 -123.5t141 -50.5q101 0 178 59l-229 303l-11 -6q-135 -70 -135 -182zM555 1094q0 -56 57 -125l11 -13l22 13q100 54 100 131q0 37 -27 61.5t-71 24.5q-38 0 -65 -27t-27 -65z" />
    <glyph glyph-name="quotesingle" unicode="'" horiz-adv-x="524" 
d="M117 864v572h291v-572h-291z" />
    <glyph glyph-name="parenleft" unicode="(" horiz-adv-x="798" 
d="M117 532q0 284 116 529.5t318 423.5l188 -180q-331 -316 -331 -773q0 -456 331 -772l-188 -180q-192 168 -313 416q-121 245 -121 536z" />
    <glyph glyph-name="parenright" unicode=")" horiz-adv-x="798" 
d="M35 -240q332 317 332 772q0 456 -332 773l188 180q194 -170 314 -416q120 -243 120 -537q0 -284 -116 -529t-318 -423z" />
    <glyph glyph-name="asterisk" unicode="*" horiz-adv-x="985" 
d="M94 1200l56 219l229 -61l-8 229h241l-8 -229l230 61l57 -219l-221 -53l149 -180l-190 -148l-135 195l-134 -195l-192 152l147 176z" />
    <glyph glyph-name="plus" unicode="+" horiz-adv-x="1306" 
d="M152 369v270h364v365h270v-365h369v-270h-369v-369h-270v369h-364z" />
    <glyph glyph-name="comma" unicode="," horiz-adv-x="634" 
d="M12 -283l199 529h319l-247 -529h-271z" />
    <glyph glyph-name="hyphen" unicode="-" horiz-adv-x="1028" 
d="M129 406v262h770v-262h-770z" />
    <glyph glyph-name="period" unicode="." horiz-adv-x="679" 
d="M164 156q0 74 49 125q51 51 125 51t125 -51q54 -51 54 -125t-54 -125q-51 -51 -125 -51t-125 51q-49 51 -49 125z" />
    <glyph glyph-name="slash" unicode="/" horiz-adv-x="1124" 
d="M162 0l604 1436h301l-600 -1436h-305z" />
    <glyph glyph-name="zero" unicode="0" horiz-adv-x="1327" 
d="M94 719q0 329 152 534q150 205 418 205q267 0 417 -205q152 -208 152 -534q0 -329 -152 -537q-150 -205 -417 -205q-268 0 -418 205q-152 208 -152 537zM397 719q0 -213 68 -340q71 -123 199 -123t196 123q70 125 70 340q0 216 -70 338q-67 123 -196 123
q-128 0 -199 -123q-68 -124 -68 -338z" />
    <glyph glyph-name="one" unicode="1" horiz-adv-x="1167" 
d="M117 0v281h350v776q-137 -90 -350 -90v272q131 6 232.5 55.5t146.5 141.5h274v-1155h338v-281h-991z" />
    <glyph glyph-name="two" unicode="2" horiz-adv-x="1265" 
d="M104 0v47q0 263 105 432q105 172 364 303l80 39q101 51 139.5 99.5t38.5 107.5q0 67 -53.5 109.5t-144.5 42.5q-218 0 -332 -230l-197 197q63 135 205 223q140 88 309 88q218 0 365 -112q154 -115 154 -314q0 -153 -83.5 -258.5t-258.5 -195.5l-125 -64
q-104 -53 -154 -104.5t-63 -128.5h677v-281h-1026z" />
    <glyph glyph-name="three" unicode="3" horiz-adv-x="1214" 
d="M47 207l205 207q128 -158 317 -158q102 0 164 43.5t62 120.5q0 168 -273 168h-119v282h97q258 0 258 162q0 64 -52 106t-137 42q-175 0 -288 -140l-199 199q195 219 479 219q213 0 354 -100q148 -103 148 -297q0 -202 -160 -311q86 -43 140.5 -132t54.5 -206
q0 -205 -154 -320t-387 -115q-150 0 -287 63t-223 167z" />
    <glyph glyph-name="four" unicode="4" horiz-adv-x="1286" 
d="M57 303v250l615 883h334v-865h198v-268h-198v-303h-304v303h-645zM373 571h329v482z" />
    <glyph glyph-name="five" unicode="5" horiz-adv-x="1271" 
d="M104 205l218 215q123 -164 301 -164q104 0 172.5 59t68.5 152q0 97 -66 160t-169 63q-159 0 -217 -137h-281l35 883h887v-281h-602l-13 -264q100 65 240 65q201 0 344 -131q145 -130 145 -342q0 -228 -159 -366q-158 -140 -408 -140q-154 0 -287 62t-209 166z" />
    <glyph glyph-name="six" unicode="6" horiz-adv-x="1306" 
d="M104 731q0 329 164 529q165 198 449 198q129 0 248.5 -53t195.5 -141l-196 -203q-98 119 -260 119q-132 0 -220 -101q-89 -100 -92 -258q113 131 312 131q206 0 350 -135q147 -135 147 -350q0 -221 -153 -356q-152 -134 -367 -134q-267 0 -424 201q-154 204 -154 553z
M469 469q0 -92 61.5 -152.5t153.5 -60.5t153.5 60.5t61.5 152.5q0 93 -61 153t-154 60t-154 -60t-61 -153z" />
    <glyph glyph-name="seven" unicode="7" horiz-adv-x="1177" 
d="M70 938v498h1048v-265q-428 -446 -483 -1089l-6 -82h-310l9 80q52 626 422 1075h-385v-217h-295z" />
    <glyph glyph-name="eight" unicode="8" horiz-adv-x="1273" 
d="M117 412q0 109 49.5 195t130.5 132q-145 121 -145 285q0 194 137 313q139 121 348 121q207 0 346 -121t139 -313q0 -166 -143 -285q79 -47 128.5 -133t49.5 -194q0 -198 -147 -318q-144 -117 -373 -117q-228 0 -375 117q-145 121 -145 318zM420 428q0 -79 59.5 -125.5
t157.5 -46.5q99 0 158 46.5t59 125.5t-59.5 126.5t-157.5 47.5q-97 0 -157 -47.5t-60 -126.5zM455 1024q0 -70 53 -113t129 -43q77 0 129.5 43t52.5 113t-52.5 113t-129.5 43q-76 0 -129 -43t-53 -113z" />
    <glyph glyph-name="nine" unicode="9" horiz-adv-x="1296" 
d="M94 969q0 220 152 354q153 135 368 135q269 0 422 -203q154 -201 154 -550q0 -330 -166 -529q-163 -199 -444 -199q-128 0 -248.5 53.5t-196.5 141.5l197 205q95 -121 258 -121q131 0 219 98q91 101 94 260q-113 -131 -313 -131q-203 0 -350 135q-146 137 -146 351z
M397 967q0 -94 60.5 -153.5t154.5 -59.5q93 0 154 60t61 153t-61 153t-154 60q-94 0 -154.5 -59.5t-60.5 -153.5z" />
    <glyph glyph-name="colon" unicode=":" horiz-adv-x="679" 
d="M164 156q0 74 49 125q51 51 125 51t125 -51q54 -51 54 -125t-54 -125q-51 -51 -125 -51t-125 51q-49 51 -49 125zM164 842q0 74 49 125q51 51 125 51t125 -51q54 -51 54 -125t-54 -125q-51 -51 -125 -51t-125 51q-49 51 -49 125z" />
    <glyph glyph-name="semicolon" unicode=";" horiz-adv-x="684" 
d="M20 -283l199 529h320l-248 -529h-271zM191 850q0 74 51 125q51 54 125 54t125 -54q54 -51 54 -125t-54 -125q-51 -51 -125 -51t-125 51t-51 125z" />
    <glyph glyph-name="less" unicode="&#x3c;" horiz-adv-x="1286" 
d="M104 350v303l1031 375v-307l-656 -219l656 -219v-306z" />
    <glyph glyph-name="equal" unicode="=" horiz-adv-x="1331" 
d="M152 182v262h1028v-262h-1028zM152 631v260h1028v-260h-1028z" />
    <glyph glyph-name="greater" unicode="&#x3e;" horiz-adv-x="1286" 
d="M129 -23v306l655 219l-655 219v307l1030 -375v-303z" />
    <glyph glyph-name="question" unicode="?" horiz-adv-x="1130" 
d="M35 1217q75 113 202 177t279 64q208 0 352 -123q146 -125 146 -317q0 -161 -105 -281q-101 -116 -272 -151v-123h-299v368h96q120 0 198.5 54t78.5 139q0 68 -54 111t-139 43q-183 0 -291 -166zM315 160q0 72 51 124t123 52q73 0 126 -52t53 -124q0 -73 -52.5 -124.5
t-126.5 -51.5q-72 0 -123 51.5t-51 124.5z" />
    <glyph glyph-name="at" unicode="@" horiz-adv-x="2181" 
d="M104 506q0 437 287 694q285 258 723 258q439 0 707 -244q266 -242 266 -649q0 -252 -137 -420q-134 -168 -338 -168q-167 0 -244 121q-133 -121 -315 -121q-218 0 -361 146q-141 144 -141 379q0 228 137 377t352 149q158 0 258 -92v68h281v-658q0 -71 18.5 -103t67.5 -32
q69 0 125 96q55 98 55 234q0 313 -190 503q-187 193 -541 193q-332 0 -549 -199q-219 -198 -219 -532q0 -328 221 -516q222 -189 582 -189q187 0 395 54v-217q-186 -58 -407 -58q-464 0 -750 250q-283 250 -283 676zM848 498q0 -110 57 -185q59 -77 164 -77q103 0 162 77
t59 185q0 105 -59 182q-58 76 -162 76q-106 0 -164 -76q-57 -75 -57 -182z" />
    <glyph glyph-name="A" unicode="A" horiz-adv-x="1458" 
d="M23 0l561 1436h290l562 -1436h-316l-114 283h-555l-113 -283h-315zM551 553h356l-178 469z" />
    <glyph glyph-name="B" unicode="B" horiz-adv-x="1406" 
d="M139 0v1436h645q229 0 362.5 -104.5t133.5 -293.5q0 -176 -147 -290q182 -129 182 -328q0 -189 -137 -305q-136 -115 -359 -115h-680zM444 281h306q131 0 194.5 38.5t63.5 126.5q0 158 -250 158h-314v-323zM444 860h291q238 0 238 148q0 81 -57.5 114t-192.5 33h-279
v-295z" />
    <glyph glyph-name="C" unicode="C" horiz-adv-x="1497" 
d="M82 715q0 335 215 538q214 205 537 205q354 0 571 -270l-205 -209q-64 92 -164 143.5t-217 51.5q-168 0 -297 -123q-127 -121 -127 -330q0 -212 127 -336q126 -123 314 -123q241 0 389 201l202 -215q-221 -271 -583 -271q-329 0 -547 203q-215 203 -215 535z" />
    <glyph glyph-name="D" unicode="D" horiz-adv-x="1495" 
d="M139 0v1436h473q310 0 543 -158q121 -81 189.5 -224.5t68.5 -326.5q0 -185 -68 -329.5t-188 -231.5q-238 -166 -545 -166h-473zM444 281h123q537 0 537 446q0 428 -539 428h-121v-874z" />
    <glyph glyph-name="E" unicode="E" horiz-adv-x="1327" 
d="M139 0v1436h1059v-281h-754v-285h719v-276h-719v-313h754v-281h-1059z" />
    <glyph glyph-name="F" unicode="F" horiz-adv-x="1210" 
d="M139 0v1436h989v-281h-684v-311h637v-279h-637v-565h-305z" />
    <glyph glyph-name="G" unicode="G" horiz-adv-x="1544" 
d="M82 715q0 335 215 538q214 205 537 205q354 0 571 -270l-205 -209q-64 92 -164 143.5t-217 51.5q-168 0 -297 -123q-127 -121 -127 -330q0 -207 127 -334q125 -125 314 -125q171 0 292 86v170h-284v281h583v-576q-108 -113 -263.5 -179.5t-332.5 -66.5q-315 0 -534 207
q-215 206 -215 531z" />
    <glyph glyph-name="H" unicode="H" horiz-adv-x="1488" 
d="M139 0v1436h305v-564h603v564h303v-1436h-303v594h-603v-594h-305z" />
    <glyph glyph-name="I" unicode="I" horiz-adv-x="606" 
d="M152 0v1436h303v-1436h-303z" />
    <glyph glyph-name="J" unicode="J" horiz-adv-x="1036" 
d="M12 201l205 202q77 -147 203 -147q92 0 144 59.5t52 165.5v955h304v-942q0 -249 -128.5 -383t-363.5 -134q-285 0 -416 224z" />
    <glyph glyph-name="K" unicode="K" horiz-adv-x="1363" 
d="M139 0v1436h305v-586l463 586h363l-492 -615l539 -821h-350l-383 586l-140 -178v-408h-305z" />
    <glyph glyph-name="L" unicode="L" horiz-adv-x="1157" 
d="M139 0v1436h305v-1155h656v-281h-961z" />
    <glyph glyph-name="M" unicode="M" horiz-adv-x="1703" 
d="M139 0v1436h305l408 -805l410 805h303v-1436h-303v815l-275 -524h-270l-273 524v-815h-305z" />
    <glyph glyph-name="N" unicode="N" horiz-adv-x="1529" 
d="M139 0v1436h367l579 -973v973h304v-1436h-365l-580 969v-969h-305z" />
    <glyph glyph-name="O" unicode="O" horiz-adv-x="1644" 
d="M82 719q0 318 213 528q211 211 524 211q315 0 529 -211q215 -209 215 -528q0 -321 -215 -533q-215 -209 -529 -209q-312 0 -524 209q-213 213 -213 533zM395 719q0 -192 117 -324q116 -131 315 -131q197 0 310 131q116 131 116 324q0 187 -120 319q-121 133 -306 133
q-196 0 -315 -131q-117 -132 -117 -321z" />
    <glyph glyph-name="P" unicode="P" horiz-adv-x="1339" 
d="M139 0v1436h582q255 0 407 -131q154 -130 154 -351q0 -224 -156 -362q-155 -137 -405 -137h-277v-455h-305zM444 735h224q311 0 311 213q0 108 -75.5 157.5t-235.5 49.5h-224v-420z" />
    <glyph glyph-name="Q" unicode="Q" horiz-adv-x="1679" 
d="M82 719q0 318 213 528q211 211 524 211q315 0 529 -211q215 -209 215 -528q0 -241 -131 -430l153 -154l-194 -192l-156 153q-186 -119 -416 -119q-312 0 -524 209q-213 213 -213 533zM395 719q0 -192 117 -324q116 -131 315 -131q115 0 197 43l-174 176l194 195l166 -168
q43 93 43 209q0 187 -120 319q-121 133 -306 133q-196 0 -315 -131q-117 -132 -117 -321z" />
    <glyph glyph-name="R" unicode="R" horiz-adv-x="1386" 
d="M139 0v1436h594q241 0 393 -125q156 -126 156 -344q0 -150 -76 -268.5t-207 -180.5l318 -518h-346l-283 461h-244v-461h-305zM444 739h236q299 0 299 211q0 105 -73 155t-226 50h-236v-416z" />
    <glyph glyph-name="S" unicode="S" horiz-adv-x="1318" 
d="M70 252l209 211q160 -207 405 -207q115 0 182.5 43.5t67.5 112.5q0 113 -201 151l-176 31q-215 36 -334 145.5t-119 284.5q0 198 156 315q155 119 375 119q337 0 553 -229l-205 -215q-163 166 -365 166q-96 0 -153 -39t-57 -103q0 -114 204 -151l142 -23
q483 -76 483 -448q0 -196 -158 -318q-157 -121 -413 -121q-184 0 -340 74.5t-256 200.5z" />
    <glyph glyph-name="T" unicode="T" horiz-adv-x="1241" 
d="M57 1155v281h1127v-281h-412v-1155h-303v1155h-412z" />
    <glyph glyph-name="U" unicode="U" horiz-adv-x="1437" 
d="M117 637v799h303v-813q0 -169 77.5 -268t221.5 -99q299 0 299 371v809h303v-799q0 -318 -158.5 -489t-443.5 -171t-443.5 171t-158.5 489z" />
    <glyph glyph-name="V" unicode="V" horiz-adv-x="1320" 
d="M12 1436h310l342 -1041l335 1041h312l-492 -1436h-315z" />
    <glyph glyph-name="W" unicode="W" horiz-adv-x="1951" 
d="M35 1436h325l222 -920l231 920h326l231 -920l221 920h326l-383 -1436h-311l-246 948l-248 -948h-311z" />
    <glyph glyph-name="X" unicode="X" horiz-adv-x="1402" 
d="M47 0l473 735l-446 701h356l270 -455l273 455h356l-446 -701l473 -735h-355l-301 483l-299 -483h-354z" />
    <glyph glyph-name="Y" unicode="Y" horiz-adv-x="1280" 
d="M12 1436h332l295 -605l297 605h332l-480 -934v-502h-301v502z" />
    <glyph glyph-name="Z" unicode="Z" horiz-adv-x="1341" 
d="M104 0v268l725 887h-718v281h1103v-269l-725 -886h748v-281h-1133z" />
    <glyph glyph-name="bracketleft" unicode="[" horiz-adv-x="768" 
d="M139 -397v1833h572v-267h-281v-1300h281v-266h-572z" />
    <glyph glyph-name="backslash" unicode="\" horiz-adv-x="1114" 
d="M23 1436h301l604 -1436h-305z" />
    <glyph glyph-name="bracketright" unicode="]" horiz-adv-x="768" 
d="M35 -131h280v1300h-280v267h571v-1833h-571v266z" />
    <glyph glyph-name="asciicircum" unicode="^" horiz-adv-x="1366" 
d="M104 688l443 748h270l445 -748h-312l-268 453l-268 -453h-310z" />
    <glyph glyph-name="underscore" unicode="_" horiz-adv-x="1261" 
d="M104 -135h1051v-262h-1051v262z" />
    <glyph glyph-name="grave" unicode="`" horiz-adv-x="1138" 
d="M248 1436h368l152 -291h-274z" />
    <glyph glyph-name="a" unicode="a" horiz-adv-x="1077" 
d="M70 295q0 157 114 240q115 83 283 83q98 0 201 -28v16q0 73 -45.5 118.5t-122.5 45.5q-138 0 -215 -117l-185 176q166 199 420 199q190 0 316 -108q125 -107 125 -293v-627h-289v66q-103 -89 -254 -89q-158 0 -253 88.5t-95 229.5zM362 313q0 -39 35 -64.5t90 -25.5
q98 0 181 62v114q-81 19 -136 19q-80 0 -125 -28.5t-45 -76.5z" />
    <glyph glyph-name="b" unicode="b" horiz-adv-x="1251" 
d="M129 0v1436h291v-496q101 88 258 88q212 0 356 -147q146 -146 146 -379q0 -235 -146 -381q-144 -144 -356 -144q-162 0 -262 95v-72h-287zM416 502q0 -115 65 -189q67 -73 168 -73q102 0 166 73q68 74 68 189q0 114 -68 188q-65 74 -166 74q-100 0 -168 -74
q-65 -74 -65 -188z" />
    <glyph glyph-name="c" unicode="c" horiz-adv-x="1099" 
d="M70 502q0 224 151 375q154 151 379 151q237 0 420 -201l-197 -190q-95 117 -213 117q-105 0 -174 -71t-69 -181t69 -181t174 -71q133 0 234 131l196 -191q-165 -213 -440 -213q-229 0 -379 150q-151 151 -151 375z" />
    <glyph glyph-name="d" unicode="d" horiz-adv-x="1249" 
d="M70 502q0 236 143 379q144 147 358 147q157 0 258 -88v496h291v-1436h-286v72q-100 -95 -263 -95q-214 0 -358 144q-143 143 -143 381zM367 502q0 -115 65 -189q67 -73 168 -73q102 0 166 73q68 74 68 189q0 114 -68 188q-65 74 -166 74q-100 0 -168 -74
q-65 -74 -65 -188z" />
    <glyph glyph-name="e" unicode="e" horiz-adv-x="1120" 
d="M72 496q0 232 137 381q139 151 356 151q230 0 357 -154t127 -360l-2 -86h-680q12 -83 72.5 -133.5t152.5 -50.5q155 0 246 116l192 -180q-164 -203 -430 -203q-228 0 -379 142q-149 143 -149 377zM381 623h360q-5 64 -52 106.5t-118 42.5q-76 0 -126 -40.5t-64 -108.5z
" />
    <glyph glyph-name="f" unicode="f" horiz-adv-x="743" 
d="M47 735v269h131v28q0 198 118 302t325 104l75 -2v-275h-49q-96 0 -138 -34.5t-42 -110.5v-12h221v-269h-221v-735h-289v735h-131z" />
    <glyph glyph-name="g" unicode="g" horiz-adv-x="1224" 
d="M70 524q0 235 143 369q144 135 348 135q143 0 250 -96v72h287v-900q0 -232 -146 -378t-397 -146q-293 0 -457 203l203 194q89 -129 252 -129q115 0 183.5 62t68.5 162v26q-84 -75 -244 -75q-216 0 -354 135q-137 134 -137 366zM367 524q0 -103 64 -170t157 -67
q95 0 159 67t64 170q0 105 -64 172.5t-159 67.5q-93 0 -157 -68t-64 -172z" />
    <glyph glyph-name="h" unicode="h" horiz-adv-x="1167" 
d="M129 0v1436h291v-490q88 82 233 82q188 0 299 -117.5t111 -326.5v-584h-293v561q0 90 -42 143.5t-124 53.5q-184 0 -184 -256v-502h-291z" />
    <glyph glyph-name="i" unicode="i" horiz-adv-x="571" 
d="M117 1288q0 72 49.5 121t118.5 49q72 0 121 -49t49 -121q0 -69 -50.5 -118.5t-119.5 -49.5t-118.5 49.5t-49.5 118.5zM139 0v1004h293v-1004h-293z" />
    <glyph glyph-name="j" unicode="j" horiz-adv-x="581" 
d="M-47 -137h63q70 0 102 27t32 96v1018h290v-1053q0 -359 -352 -359l-135 5v266zM127 1288q0 72 49.5 121t118.5 49t119.5 -50.5t50.5 -119.5t-50.5 -118.5t-119.5 -49.5t-118.5 49.5t-49.5 118.5z" />
    <glyph glyph-name="k" unicode="k" horiz-adv-x="1116" 
d="M129 0v1436h291v-750l278 318h367l-371 -414l387 -590h-354l-240 381l-67 -74v-307h-291z" />
    <glyph glyph-name="l" unicode="l" horiz-adv-x="548" 
d="M129 0v1436h291v-1436h-291z" />
    <glyph glyph-name="m" unicode="m" horiz-adv-x="1763" 
d="M129 0v1004h287v-70q98 94 241 94q173 0 279 -121q121 121 301 121q201 0 310.5 -115.5t109.5 -328.5v-584h-291v571q0 86 -40 136.5t-114 50.5q-82 0 -128 -59.5t-46 -163.5v-535h-290v571q0 86 -40 136.5t-114 50.5q-86 0 -130 -63t-44 -181v-514h-291z" />
    <glyph glyph-name="n" unicode="n" horiz-adv-x="1167" 
d="M129 0v1004h287v-70q98 94 237 94q188 0 299 -117.5t111 -326.5v-584h-293v561q0 90 -42 143.5t-124 53.5q-184 0 -184 -256v-502h-291z" />
    <glyph glyph-name="o" unicode="o" horiz-adv-x="1204" 
d="M72 502q0 224 151 375q154 151 379 151q226 0 377 -151q154 -151 154 -375q0 -223 -152 -375q-150 -150 -379 -150t-379 150q-151 151 -151 375zM369 502q0 -112 65 -183t168 -71t168 71q66 72 66 183q0 110 -66 182t-168 72t-168 -72q-65 -71 -65 -182z" />
    <glyph glyph-name="p" unicode="p" horiz-adv-x="1249" 
d="M129 -397v1401h287v-72q104 96 262 96q211 0 356 -145q146 -146 146 -381q0 -233 -146 -379t-356 -146q-158 0 -258 86v-460h-291zM416 502q0 -115 65 -189q67 -73 168 -73q102 0 166 73q68 74 68 189q0 114 -68 188q-65 74 -166 74q-100 0 -168 -74q-65 -74 -65 -188z
" />
    <glyph glyph-name="q" unicode="q" horiz-adv-x="1249" 
d="M70 502q0 238 143 381q145 145 358 145q159 0 263 -96v72h286v-1401h-291v460q-100 -86 -258 -86q-212 0 -358 146q-143 143 -143 379zM367 502q0 -115 65 -189q67 -73 168 -73q102 0 166 73q68 74 68 189q0 114 -68 188q-65 74 -166 74q-100 0 -168 -74
q-65 -74 -65 -188z" />
    <glyph glyph-name="r" unicode="r" horiz-adv-x="788" 
d="M129 0v1004h287v-91q88 105 250 105q59 0 77 -2v-281h-45q-130 0 -204 -81.5t-74 -233.5v-420h-291z" />
    <glyph glyph-name="s" unicode="s" horiz-adv-x="999" 
d="M70 172l178 182q136 -133 287 -133q46 0 79 18.5t33 47.5q0 42 -90 63l-133 33q-328 82 -328 328q0 144 113 229q113 88 276 88q226 0 404 -158l-178 -188q-119 98 -238 98q-42 0 -68 -17t-26 -42q0 -38 72 -53l149 -35q330 -77 330 -332q0 -144 -115 -234t-305 -90
q-134 0 -254 56t-186 139z" />
    <glyph glyph-name="t" unicode="t" horiz-adv-x="770" 
d="M35 735v269h131v280h289v-280h223v-269h-223v-346q0 -70 31.5 -96.5t101.5 -26.5h86v-266q-102 -4 -158 -4q-350 0 -350 358v381h-131z" />
    <glyph glyph-name="u" unicode="u" horiz-adv-x="1144" 
d="M104 420v584h293v-572q0 -86 40 -136t114 -50q172 0 172 243v515h293v-1004h-287v70q-90 -93 -250 -93q-177 0 -276 116.5t-99 326.5z" />
    <glyph glyph-name="v" unicode="v" horiz-adv-x="1036" 
d="M12 1004h310l196 -621l197 621h309l-356 -1004h-299z" />
    <glyph glyph-name="w" unicode="w" horiz-adv-x="1605" 
d="M23 1004h311l143 -601l164 601h324l165 -601l142 601h311l-283 -1004h-317l-180 618l-180 -618h-318z" />
    <glyph glyph-name="x" unicode="x" horiz-adv-x="1073" 
d="M35 0l338 516l-316 488h328l152 -256l151 256h328l-316 -488l338 -516h-325l-176 285l-175 -285h-327z" />
    <glyph glyph-name="y" unicode="y" horiz-adv-x="1118" 
d="M12 1004h324l225 -621l234 621h311l-559 -1401h-307l163 397z" />
    <glyph glyph-name="z" unicode="z" horiz-adv-x="1054" 
d="M104 0v233l437 510h-424v261h811v-234l-443 -508h465v-262h-846z" />
    <glyph glyph-name="braceleft" unicode="{" horiz-adv-x="888" 
d="M82 381v276h221v406q0 205 95 295t296 90h137v-264h-86q-75 0 -110 -35.5t-35 -116.5v-1026q0 -80 35 -115.5t110 -35.5h86v-263h-137q-201 0 -296 90t-95 295v404h-221z" />
    <glyph glyph-name="bar" unicode="|" horiz-adv-x="774" 
d="M246 -397v1833h284v-1833h-284z" />
    <glyph glyph-name="braceright" unicode="}" horiz-adv-x="888" 
d="M35 -145h86q75 0 110 35.5t35 115.5v1026q0 81 -35 116.5t-110 35.5h-86v264h137q201 0 296 -90t95 -295v-406h221v-276h-221v-404q0 -205 -95 -295t-296 -90h-137v263z" />
    <glyph glyph-name="asciitilde" unicode="~" horiz-adv-x="1054" 
d="M115 362q-8 162 53.5 256.5t183.5 94.5q45 0 111 -17l141 -45q53 -16 78 -16q63 0 63 78h211q11 -161 -50.5 -256t-184.5 -95q-60 0 -113 17l-139 43q-53 16 -80 16q-63 0 -63 -76h-211z" />
    <glyph glyph-name="uni00A0" unicode="&#xa0;" horiz-adv-x="571" 
 />
    <glyph glyph-name="exclamdown" unicode="&#xa1;" horiz-adv-x="679" 
d="M164 852q0 73 52 124.5t124 51.5q74 0 125 -51t51 -125t-51.5 -126t-124.5 -52q-72 0 -124 52.5t-52 125.5zM188 -397v946h301v-946h-301z" />
    <glyph glyph-name="cent" unicode="&#xa2;" horiz-adv-x="1150" 
d="M117 502q0 193 114 334q112 139 297 180v221h226v-219q167 -30 313 -191l-197 -190q-57 69 -116 96v-467q71 30 137 115l196 -191q-130 -169 -333 -204v-219h-226v223q-183 38 -297 176q-114 141 -114 336zM414 502q0 -150 114 -217v434q-114 -71 -114 -217z" />
    <glyph glyph-name="sterling" unicode="&#xa3;" horiz-adv-x="1339" 
d="M129 0v285h262l-84 356h-178v277h133q-2 14 -2 65q0 230 143 352q144 123 332 123q302 0 471 -227l-209 -213q-94 162 -243 162q-88 0 -139.5 -59t-51.5 -150q0 -43 2 -53h363v-277h-307l77 -356h252v225h273v-510h-1094z" />
    <glyph glyph-name="yen" unicode="&#xa5;" horiz-adv-x="1372" 
d="M59 1436h332l295 -605l297 605h332l-359 -697h218v-237h-338v-94h338v-238h-338v-170h-301v170h-338v238h338v94h-338v237h217z" />
    <glyph glyph-name="brokenbar" unicode="&#xa6;" horiz-adv-x="774" 
d="M246 350h284v-747h-284v747zM246 688v748h284v-748h-284z" />
    <glyph glyph-name="section" unicode="&#xa7;" horiz-adv-x="1296" 
d="M117 588q0 191 147 299q-69 92 -69 217q0 154 124 254t316 100q251 0 450 -225l-194 -195q-67 78 -127.5 113t-142.5 35q-59 0 -95.5 -27t-36.5 -69q0 -90 156 -152l127 -49q204 -76 305 -174q103 -100 103 -269q0 -154 -117 -286q67 -91 67 -209q0 -155 -131 -262
q-130 -109 -333 -109q-319 0 -494 285l197 188q126 -200 303 -200q75 0 118.5 25.5t43.5 72.5t-38.5 78.5t-133.5 64.5l-168 58q-191 68 -284 171t-93 265zM414 602q0 -126 174 -190l258 -97q39 45 39 113q0 123 -174 190l-250 99q-47 -38 -47 -115z" />
    <glyph glyph-name="dieresis" unicode="&#xa8;" horiz-adv-x="1138" 
d="M205 1307q0 62 44 106.5t107 44.5q62 0 108 -45t46 -106t-46 -106.5t-108 -45.5q-63 0 -107 44.5t-44 107.5zM639 1307q0 62 44.5 106.5t107.5 44.5q62 0 107.5 -45t45.5 -106t-45.5 -106.5t-107.5 -45.5q-63 0 -107.5 44.5t-44.5 107.5z" />
    <glyph glyph-name="copyright" unicode="&#xa9;" horiz-adv-x="1691" 
d="M104 719q0 312 215 524q218 215 527 215t524 -215q217 -211 217 -524q0 -318 -217 -529q-216 -213 -524 -213q-311 0 -527 213q-215 212 -215 529zM285 719q0 -239 157 -404q157 -161 404 -161q244 0 401 161q160 165 160 404q0 234 -160 399q-159 164 -401 164
q-245 0 -404 -164q-157 -165 -157 -399zM446 717q0 178 121 293q120 114 299 114q188 0 312 -145l-158 -158q-61 82 -154 82q-73 0 -125.5 -53t-52.5 -133t52 -134.5t130 -54.5q99 0 166 88l158 -147q-137 -162 -332 -162q-176 0 -297 115q-119 113 -119 295z" />
    <glyph glyph-name="ordfeminine" unicode="&#xaa;" horiz-adv-x="878" 
d="M94 918q0 113 81.5 176t209.5 63q70 0 129 -20v12q0 51 -30 82t-81 31q-89 0 -151 -80l-137 131q115 145 309 145q149 0 237.5 -78.5t88.5 -216.5v-463h-230v37q-83 -53 -182 -53q-115 0 -179.5 64t-64.5 170zM328 932q0 -26 19.5 -42t51.5 -16q70 0 115 39v64
q-46 14 -100 14q-86 0 -86 -59z" />
    <glyph glyph-name="guillemotleft" unicode="&#xab;" horiz-adv-x="1351" 
d="M82 502l280 502h316l-285 -502l285 -502h-316zM676 502l280 502h316l-285 -502l285 -502h-316z" />
    <glyph glyph-name="logicalnot" unicode="&#xac;" horiz-adv-x="1284" 
d="M129 406v262h1004v-541h-281v279h-723z" />
    <glyph glyph-name="uni00AD" unicode="&#xad;" horiz-adv-x="1028" 
d="M129 406v262h770v-262h-770z" />
    <glyph glyph-name="registered" unicode="&#xae;" horiz-adv-x="1327" 
d="M104 891q0 236 162 401q163 166 396 166q232 0 395 -166q164 -167 164 -401q0 -232 -164 -399q-164 -164 -395 -164q-232 0 -396 164q-162 165 -162 399zM264 891q0 -170 113 -289t285 -119q171 0 284 119q115 121 115 289q0 170 -115 291t-284 121q-170 0 -285 -121
q-113 -119 -113 -291zM440 647v514h256q94 0 156.5 -51.5t62.5 -142.5q0 -103 -84 -156l99 -164h-182l-76 131h-56v-131h-176zM616 924h52q71 0 71 49q0 45 -71 45h-52v-94z" />
    <glyph glyph-name="macron" unicode="&#xaf;" horiz-adv-x="1138" 
d="M311 1196v240h512v-240h-512z" />
    <glyph glyph-name="degree" unicode="&#xb0;" horiz-adv-x="911" 
d="M104 1108q0 145 103 248q102 102 248 102q145 0 247 -102q103 -103 103 -248t-103 -248q-102 -102 -247 -102q-146 0 -248 102q-103 103 -103 248zM336 1108q0 -51 34 -86t85 -35q48 0 82 35t34 86q0 54 -33 89.5t-83 35.5q-51 0 -85 -35.5t-34 -89.5z" />
    <glyph glyph-name="plusminus" unicode="&#xb1;" horiz-adv-x="1331" 
d="M152 0v262h1028v-262h-1028zM164 801v270h364v365h271v-365h368v-270h-368v-369h-271v369h-364z" />
    <glyph glyph-name="uni00B2" unicode="&#xb2;" horiz-adv-x="854" 
d="M94 631v49q0 293 238 407l82 41q73 34 73 74q0 45 -67 45q-96 0 -166 -117l-158 158q114 170 326 170q134 0 223 -63q92 -62 92 -183q0 -85 -45.5 -143.5t-159.5 -120.5l-51 -28q-89 -47 -98 -82h350v-207h-639z" />
    <glyph glyph-name="uni00B3" unicode="&#xb3;" horiz-adv-x="813" 
d="M70 743l153 154q56 -80 154 -80q40 0 62 18t22 46q0 63 -107 63h-73v195h59q98 0 98 57q0 23 -20 38t-49 15q-81 0 -140 -53l-139 137q113 125 289 125q124 0 207 -57q88 -58 88 -176t-80 -174q43 -26 72.5 -77.5t29.5 -111.5q0 -132 -96 -194q-95 -62 -229 -62
q-182 0 -301 137z" />
    <glyph glyph-name="acute" unicode="&#xb4;" horiz-adv-x="1138" 
d="M399 1145l152 291h369l-246 -291h-275z" />
    <glyph glyph-name="paragraph" unicode="&#xb6;" horiz-adv-x="1579" 
d="M70 981q0 207 141 330q143 125 385 125h831v-1833h-297v1560h-190v-1560h-295v925h-49q-241 0 -385 123q-141 123 -141 330z" />
    <glyph glyph-name="periodcentered" unicode="&#xb7;" horiz-adv-x="585" 
d="M116 526q0 74 50 125q51 51 125 51t125 -51q54 -51 54 -125t-54 -125q-51 -51 -125 -51t-125 51q-50 51 -50 125z" />
    <glyph glyph-name="cedilla" unicode="&#xb8;" horiz-adv-x="1146" 
d="M344 -281l145 281h261l-113 -281h-293z" />
    <glyph glyph-name="uni00B9" unicode="&#xb9;" horiz-adv-x="870" 
d="M129 631v200h205v336q-68 -51 -205 -51v211q164 3 217 109h223v-605h197v-200h-637z" />
    <glyph glyph-name="ordmasculine" unicode="&#xba;" horiz-adv-x="985" 
d="M94 1067q0 167 115 279q112 112 285 112q170 0 282 -112q115 -115 115 -279t-115 -279q-113 -110 -282 -110q-172 0 -285 110q-115 115 -115 279zM346 1067q0 -77 41.5 -121.5t106.5 -44.5q63 0 104 44.5t41 121.5t-41 121.5t-104 44.5q-65 0 -106.5 -44.5t-41.5 -121.5z
" />
    <glyph glyph-name="guillemotright" unicode="&#xbb;" horiz-adv-x="1351" 
d="M57 0l285 502l-285 502h316l280 -502l-280 -502h-316zM651 0l285 502l-285 502h316l280 -502l-280 -502h-316z" />
    <glyph glyph-name="onequarter" unicode="&#xbc;" horiz-adv-x="2103" 
d="M106 631v200h205v336q-68 -51 -205 -51v211q165 3 218 109h223v-605h196v-200h-637zM483 0l883 1436h313l-882 -1436h-314zM1257 137v201l277 444h319v-432h121v-213h-121v-137h-235v137h-361zM1481 350h137v217z" />
    <glyph glyph-name="onehalf" unicode="&#xbd;" horiz-adv-x="2152" 
d="M106 631v200h205v336q-68 -51 -205 -51v211q165 3 218 109h223v-605h196v-200h-637zM483 0l883 1436h313l-882 -1436h-314zM1393 -23v50q0 293 237 407l82 41q74 35 74 74q0 45 -68 45q-96 0 -166 -117l-157 158q114 170 325 170q133 0 224 -64q92 -62 92 -182
q0 -85 -45.5 -143.5t-159.5 -120.5l-51 -29q-90 -47 -99 -82h351v-207h-639z" />
    <glyph glyph-name="threequarters" unicode="&#xbe;" horiz-adv-x="1970" 
d="M57 743l154 154q56 -80 154 -80q40 0 62 18t22 46q0 63 -107 63h-74v195h60q98 0 98 57q0 23 -20 38t-50 15q-80 0 -139 -53l-139 137q113 125 289 125q123 0 206 -57q89 -59 89 -176q0 -118 -80 -174q43 -26 72.5 -77.5t29.5 -111.5q0 -132 -96 -194q-95 -62 -230 -62
q-182 0 -301 137zM352 0l883 1436h313l-882 -1436h-314zM1124 137v201l277 444h319v-432h121v-213h-121v-137h-235v137h-361zM1348 350h137v217z" />
    <glyph glyph-name="questiondown" unicode="&#xbf;" horiz-adv-x="1130" 
d="M117 10q0 158 102.5 271.5t274.5 148.5v119h297v-365h-95q-128 0 -202 -43.5t-74 -126.5q0 -67 53.5 -109t138.5 -42q189 0 291 153l193 -204q-176 -232 -482 -232q-211 0 -354 119q-143 116 -143 311zM463 852.5q0 73.5 51 124.5t125 51t125 -51t51 -124.5t-51 -127.5
q-51 -51 -125 -51t-125 51q-51 54 -51 127.5z" />
    <glyph glyph-name="Agrave" unicode="&#xc0;" 
d="M10 0l561 1436h291l561 -1436h-315l-115 283h-555l-112 -283h-316zM389 1786h348l152 -211h-299zM539 553h356l-178 469z" />
    <glyph glyph-name="Aacute" unicode="&#xc1;" 
d="M10 0l561 1436h291l561 -1436h-315l-115 283h-555l-112 -283h-316zM514 1575l152 211h348l-201 -211h-299zM539 553h356l-178 469z" />
    <glyph glyph-name="Acircumflex" unicode="&#xc2;" 
d="M10 0l561 1436h291l561 -1436h-315l-115 283h-555l-112 -283h-316zM365 1575l176 211h356l174 -211h-274l-78 82l-78 -82h-276zM539 553h356l-178 469z" />
    <glyph glyph-name="Atilde" unicode="&#xc3;" 
d="M10 0l561 1436h291l561 -1436h-315l-115 283h-555l-112 -283h-316zM369 1530q0 108 54 182t144 74q28 0 88 -14l84 -27q41 -12 62 -12q52 0 55 53h186q0 -107 -55 -181.5t-143 -74.5q-10 0 -88 16l-84 27q-38 10 -62 10q-52 0 -55 -53h-186zM539 553h356l-178 469z" />
    <glyph glyph-name="Adieresis" unicode="&#xc4;" 
d="M10 0l561 1436h291l561 -1436h-315l-115 283h-555l-112 -283h-316zM348 1669q0 62 44.5 107t107.5 45q62 0 107.5 -45.5t45.5 -106.5t-45.5 -106t-107.5 -45q-63 0 -107.5 44t-44.5 107zM539 553h356l-178 469zM782 1669q0 62 44.5 107t107.5 45q62 0 107.5 -45.5
t45.5 -106.5t-45.5 -106t-107.5 -45q-63 0 -107.5 44t-44.5 107z" />
    <glyph glyph-name="Aring" unicode="&#xc5;" 
d="M10 0l557 1427q-69 63 -69 160q0 95 64 158t153 63q94 0 157 -63q66 -63 66 -158q0 -96 -72 -162l557 -1425h-315l-115 283h-555l-112 -283h-316zM539 553h356l-178 469zM650 1567.5q4 -20.5 21.5 -34.5t43.5 -13q24 -1 41 13t21 34.5t0 40.5t-21 34t-41 13
q-26 1 -43.5 -13t-21.5 -34t0 -40.5z" />
    <glyph glyph-name="AE" unicode="&#xc6;" horiz-adv-x="1898" 
d="M10 0l561 1436h1211v-281h-811l112 -285h664v-276h-557l123 -313h469v-281h-674l-115 283h-555l-112 -283h-316zM539 553h356l-178 469z" />
    <glyph glyph-name="Ccedilla" unicode="&#xc7;" horiz-adv-x="1497" 
d="M82 715q0 335 215 538q214 205 537 205q354 0 571 -270l-205 -209q-64 92 -164 143.5t-217 51.5q-168 0 -297 -123q-127 -121 -127 -330q0 -212 127 -336q126 -123 314 -123q241 0 389 201l202 -215q-194 -234 -489 -264l-104 -265h-293l141 273q-269 47 -434 239
q-166 193 -166 484z" />
    <glyph glyph-name="Egrave" unicode="&#xc8;" horiz-adv-x="1314" 
d="M139 0v1436h1059v-281h-754v-285h719v-276h-719v-313h754v-281h-1059zM379 1786h348l152 -211h-299z" />
    <glyph glyph-name="Eacute" unicode="&#xc9;" horiz-adv-x="1314" 
d="M139 0v1436h1059v-281h-754v-285h719v-276h-719v-313h754v-281h-1059zM469 1575l152 211h348l-201 -211h-299z" />
    <glyph glyph-name="Ecircumflex" unicode="&#xca;" horiz-adv-x="1314" 
d="M139 0v1436h1059v-281h-754v-285h719v-276h-719v-313h754v-281h-1059zM324 1575l176 211h356l174 -211h-274l-78 82l-78 -82h-276z" />
    <glyph glyph-name="Edieresis" unicode="&#xcb;" horiz-adv-x="1314" 
d="M139 0v1436h1059v-281h-754v-285h719v-276h-719v-313h754v-281h-1059zM301 1669q0 62 44.5 107t107.5 45q62 0 107.5 -45.5t45.5 -106.5t-45.5 -106t-107.5 -45q-63 0 -107.5 44t-44.5 107zM735 1669q0 62 44.5 107t107.5 45q62 0 107.5 -45.5t45.5 -106.5t-45.5 -106
t-107.5 -45q-63 0 -107.5 44t-44.5 107z" />
    <glyph glyph-name="Igrave" unicode="&#xcc;" horiz-adv-x="606" 
d="M-23 1786h349l151 -211h-299zM152 0v1436h303v-1436h-303z" />
    <glyph glyph-name="Iacute" unicode="&#xcd;" horiz-adv-x="606" 
d="M121 1575l151 211h349l-201 -211h-299zM152 0v1436h303v-1436h-303z" />
    <glyph glyph-name="Icircumflex" unicode="&#xce;" horiz-adv-x="610" 
d="M-49 1575l176 211h356l174 -211h-274l-78 82l-78 -82h-276zM152 0v1436h303v-1436h-303z" />
    <glyph glyph-name="Idieresis" unicode="&#xcf;" horiz-adv-x="606" 
d="M-66 1669q0 62 44.5 107t107.5 45q62 0 108 -45.5t46 -106.5t-46 -106t-108 -45q-63 0 -107.5 44t-44.5 107zM152 0v1436h303v-1436h-303zM369 1669q0 62 44 107t107 45q62 0 108 -45.5t46 -106.5t-46 -106t-108 -45q-63 0 -107 44t-44 107z" />
    <glyph glyph-name="Eth" unicode="&#xd0;" horiz-adv-x="1564" 
d="M57 598v268h152v570h473q310 0 543 -158q121 -81 189.5 -224.5t68.5 -326.5q0 -185 -68 -329.5t-188 -231.5q-238 -166 -545 -166h-473v598h-152zM514 281h123q537 0 537 446q0 428 -539 428h-121v-289h234v-268h-234v-317z" />
    <glyph glyph-name="Ntilde" unicode="&#xd1;" horiz-adv-x="1529" 
d="M139 0v1436h367l579 -973v973h304v-1436h-365l-580 969v-969h-305zM428 1530q0 108 54.5 182t144.5 74q28 0 88 -14l84 -27q40 -12 61 -12q52 0 55 53h187q0 -107 -55 -181.5t-144 -74.5q-10 0 -88 16l-84 27q-38 10 -61 10q-53 0 -56 -53h-186z" />
    <glyph glyph-name="Ograve" unicode="&#xd2;" horiz-adv-x="1644" 
d="M82 719q0 318 213 528q211 211 524 211q315 0 529 -211q215 -209 215 -528q0 -321 -215 -533q-215 -209 -529 -209q-312 0 -524 209q-213 213 -213 533zM395 719q0 -192 117 -324q116 -131 315 -131q197 0 310 131q116 131 116 324q0 187 -120 319q-121 133 -306 133
q-196 0 -315 -131q-117 -132 -117 -321zM479 1786h348l152 -211h-299z" />
    <glyph glyph-name="Oacute" unicode="&#xd3;" horiz-adv-x="1644" 
d="M82 719q0 318 213 528q211 211 524 211q315 0 529 -211q215 -209 215 -528q0 -321 -215 -533q-215 -209 -529 -209q-312 0 -524 209q-213 213 -213 533zM395 719q0 -192 117 -324q116 -131 315 -131q197 0 310 131q116 131 116 324q0 187 -120 319q-121 133 -306 133
q-196 0 -315 -131q-117 -132 -117 -321zM633 1575l151 211h349l-201 -211h-299z" />
    <glyph glyph-name="Ocircumflex" unicode="&#xd4;" horiz-adv-x="1644" 
d="M82 719q0 318 213 528q211 211 524 211q315 0 529 -211q215 -209 215 -528q0 -321 -215 -533q-215 -209 -529 -209q-312 0 -524 209q-213 213 -213 533zM395 719q0 -192 117 -324q116 -131 315 -131q197 0 310 131q116 131 116 324q0 187 -120 319q-121 133 -306 133
q-196 0 -315 -131q-117 -132 -117 -321zM463 1575l176 211h356l174 -211h-274l-78 82l-78 -82h-276z" />
    <glyph glyph-name="Otilde" unicode="&#xd5;" horiz-adv-x="1644" 
d="M82 719q0 318 213 528q211 211 524 211q315 0 529 -211q215 -209 215 -528q0 -321 -215 -533q-215 -209 -529 -209q-312 0 -524 209q-213 213 -213 533zM395 719q0 -192 117 -324q116 -131 315 -131q197 0 310 131q116 131 116 324q0 187 -120 319q-121 133 -306 133
q-196 0 -315 -131q-117 -132 -117 -321zM475 1530q0 108 54.5 182t144.5 74q28 0 88 -14l84 -27q41 -12 61 -12q53 0 56 53h186q0 -107 -55 -181.5t-144 -74.5q-10 0 -88 16l-84 27q-38 10 -61 10q-52 0 -55 -53h-187z" />
    <glyph glyph-name="Odieresis" unicode="&#xd6;" horiz-adv-x="1644" 
d="M82 719q0 318 213 528q211 211 524 211q315 0 529 -211q215 -209 215 -528q0 -321 -215 -533q-215 -209 -529 -209q-312 0 -524 209q-213 213 -213 533zM395 719q0 -192 117 -324q116 -131 315 -131q197 0 310 131q116 131 116 324q0 187 -120 319q-121 133 -306 133
q-196 0 -315 -131q-117 -132 -117 -321zM451 1669q0 62 44 107t107 45q62 0 108 -45.5t46 -106.5t-46 -106t-108 -45q-63 0 -107 44t-44 107zM885 1669q0 62 44 107t107 45q62 0 108 -45.5t46 -106.5t-46 -106t-108 -45q-63 0 -107 44t-44 107z" />
    <glyph glyph-name="multiply" unicode="&#xd7;" horiz-adv-x="1234" 
d="M129 211l295 293l-291 293l195 192l290 -291l289 291l195 -192l-289 -293l293 -293l-193 -195l-295 295l-296 -295z" />
    <glyph glyph-name="Oslash" unicode="&#xd8;" horiz-adv-x="1644" 
d="M82 719q0 318 213 528q211 211 524 211q160 0 314 -65l86 123l198 -144l-80 -115q226 -212 226 -538q0 -321 -215 -533q-215 -209 -529 -209q-177 0 -330 72l-86 -123l-196 142l84 120q-209 212 -209 531zM395 719q0 -157 76 -273l492 703q-71 22 -136 22
q-196 0 -315 -131q-117 -132 -117 -321zM662 293q82 -29 165 -29q197 0 310 131q116 131 116 324q0 165 -94 287z" />
    <glyph glyph-name="Ugrave" unicode="&#xd9;" horiz-adv-x="1437" 
d="M117 637v799h303v-813q0 -169 77.5 -268t221.5 -99q299 0 299 371v809h303v-799q0 -318 -158.5 -489t-443.5 -171t-443.5 171t-158.5 489zM406 1786h348l151 -211h-299z" />
    <glyph glyph-name="Uacute" unicode="&#xda;" horiz-adv-x="1437" 
d="M117 637v799h303v-813q0 -169 77.5 -268t221.5 -99q299 0 299 371v809h303v-799q0 -318 -158.5 -489t-443.5 -171t-443.5 171t-158.5 489zM528 1575l152 211h348l-201 -211h-299z" />
    <glyph glyph-name="Ucircumflex" unicode="&#xdb;" horiz-adv-x="1437" 
d="M117 637v799h303v-813q0 -169 77.5 -268t221.5 -99q299 0 299 371v809h303v-799q0 -318 -158.5 -489t-443.5 -171t-443.5 171t-158.5 489zM362 1575l177 211h356l174 -211h-274l-78 82l-78 -82h-277z" />
    <glyph glyph-name="Udieresis" unicode="&#xdc;" horiz-adv-x="1437" 
d="M117 637v799h303v-813q0 -169 77.5 -268t221.5 -99q299 0 299 371v809h303v-799q0 -318 -158.5 -489t-443.5 -171t-443.5 171t-158.5 489zM350 1669q0 62 44.5 107t107.5 45q62 0 107.5 -45.5t45.5 -106.5t-45.5 -106t-107.5 -45q-63 0 -107.5 44t-44.5 107zM784 1669
q0 62 44.5 107t107.5 45q62 0 108 -45.5t46 -106.5t-46 -106t-108 -45q-63 0 -107.5 44t-44.5 107z" />
    <glyph glyph-name="Yacute" unicode="&#xdd;" horiz-adv-x="1280" 
d="M12 1436h332l295 -605l297 605h332l-480 -934v-502h-301v502zM459 1575l151 211h348l-200 -211h-299z" />
    <glyph glyph-name="Thorn" unicode="&#xde;" horiz-adv-x="1304" 
d="M139 0v1436h305v-211h242q255 0 408 -129t153 -351q0 -225 -155 -362t-406 -137h-242v-246h-305zM444 524h189q311 0 311 213q0 209 -311 209h-189v-422z" />
    <glyph glyph-name="germandbls" unicode="&#xdf;" horiz-adv-x="1296" 
d="M117 0v881q0 267 149 422t400 155q195 0 340 -121t145 -301q0 -89 -36.5 -169.5t-94.5 -123.5q194 -117 194 -331q0 -184 -129 -310q-125 -125 -350 -125q-203 0 -297 99l144 207q37 -37 123 -37q99 0 158 49t59 129q0 160 -217 160h-140v268h99q89 0 140.5 47.5
t51.5 122.5q0 74 -54.5 121t-144.5 47q-249 0 -249 -309v-881h-291z" />
    <glyph glyph-name="agrave" unicode="&#xe0;" horiz-adv-x="1077" 
d="M70 295q0 157 114 240q115 83 283 83q98 0 201 -28v16q0 73 -45.5 118.5t-122.5 45.5q-138 0 -215 -117l-185 176q166 199 420 199q190 0 316 -108q125 -107 125 -293v-627h-289v66q-103 -89 -254 -89q-158 0 -253 88.5t-95 229.5zM213 1436h369l151 -291h-274zM362 313
q0 -39 35 -64.5t90 -25.5q98 0 181 62v114q-81 19 -136 19q-80 0 -125 -28.5t-45 -76.5z" />
    <glyph glyph-name="aacute" unicode="&#xe1;" horiz-adv-x="1077" 
d="M70 295q0 157 114 240q115 83 283 83q98 0 201 -28v16q0 73 -45.5 118.5t-122.5 45.5q-138 0 -215 -117l-185 176q166 199 420 199q190 0 316 -108q125 -107 125 -293v-627h-289v66q-103 -89 -254 -89q-158 0 -253 88.5t-95 229.5zM334 1145l151 291h369l-246 -291h-274z
M362 313q0 -39 35 -64.5t90 -25.5q98 0 181 62v114q-81 19 -136 19q-80 0 -125 -28.5t-45 -76.5z" />
    <glyph glyph-name="acircumflex" unicode="&#xe2;" horiz-adv-x="1077" 
d="M70 295q0 157 114 240q115 83 283 83q98 0 201 -28v16q0 73 -45.5 118.5t-122.5 45.5q-138 0 -215 -117l-185 176q166 199 420 199q190 0 316 -108q125 -107 125 -293v-627h-289v66q-103 -89 -254 -89q-158 0 -253 88.5t-95 229.5zM170 1145l186 291h334l187 -291h-252
l-103 121l-100 -121h-252zM362 313q0 -39 35 -64.5t90 -25.5q98 0 181 62v114q-81 19 -136 19q-80 0 -125 -28.5t-45 -76.5z" />
    <glyph glyph-name="atilde" unicode="&#xe3;" horiz-adv-x="1077" 
d="M70 295q0 157 114 240q115 83 283 83q98 0 201 -28v16q0 73 -45.5 118.5t-122.5 45.5q-138 0 -215 -117l-185 176q166 199 420 199q190 0 316 -108q125 -107 125 -293v-627h-289v66q-103 -89 -254 -89q-158 0 -253 88.5t-95 229.5zM184 1180q0 108 54.5 182t144.5 74
q23 0 88 -15l84 -26q44 -13 61 -13q53 0 56 54h186q0 -107 -55 -181.5t-144 -74.5q-10 0 -88 16l-84 27q-38 10 -61 10q-52 0 -55 -53h-187zM362 313q0 -39 35 -64.5t90 -25.5q98 0 181 62v114q-81 19 -136 19q-80 0 -125 -28.5t-45 -76.5z" />
    <glyph glyph-name="adieresis" unicode="&#xe4;" horiz-adv-x="1077" 
d="M70 295q0 157 114 240q115 83 283 83q98 0 201 -28v16q0 73 -45.5 118.5t-122.5 45.5q-138 0 -215 -117l-185 176q166 199 420 199q190 0 316 -108q125 -107 125 -293v-627h-289v66q-103 -89 -254 -89q-158 0 -253 88.5t-95 229.5zM156 1307q0 62 44 106.5t107 44.5
q62 0 108 -45t46 -106t-46 -106.5t-108 -45.5q-63 0 -107 44.5t-44 107.5zM362 313q0 -39 35 -64.5t90 -25.5q98 0 181 62v114q-81 19 -136 19q-80 0 -125 -28.5t-45 -76.5zM590 1307q0 62 44 106.5t107 44.5q62 0 108 -45t46 -106t-46 -106.5t-108 -45.5q-63 0 -107 44.5
t-44 107.5z" />
    <glyph glyph-name="aring" unicode="&#xe5;" horiz-adv-x="1077" 
d="M70 295q0 157 114 240q115 83 283 83q98 0 201 -28v16q0 73 -45.5 118.5t-122.5 45.5q-138 0 -215 -117l-185 176q166 199 420 199q190 0 316 -108q125 -107 125 -293v-627h-289v66q-103 -89 -254 -89q-158 0 -253 88.5t-95 229.5zM346 1284q0 72 51 123q54 51 127.5 51
t124.5 -51q54 -51 54 -123t-54 -123q-51 -51 -124.5 -51t-127.5 51q-51 51 -51 123zM362 313q0 -39 35 -64.5t90 -25.5q98 0 181 62v114q-81 19 -136 19q-80 0 -125 -28.5t-45 -76.5zM476.5 1272.5q9.5 -25.5 34 -32.5t48.5 9q21 21 11.5 47.5t-33.5 33t-48 -12.5
q-22 -19 -12.5 -44.5z" />
    <glyph glyph-name="ae" unicode="&#xe6;" horiz-adv-x="1699" 
d="M70 295q0 157 114 240q115 83 283 83h207q0 66 -48.5 103t-125.5 37q-138 0 -215 -109l-185 174q150 205 420 205q186 0 303 -129q135 129 330 129q228 0 352 -154q125 -149 125 -360l-2 -86h-665q8 -83 67.5 -133.5t155.5 -50.5q141 0 221 127l205 -191
q-164 -203 -424 -203q-221 0 -365 132q-167 -132 -368 -132q-175 0 -280 88.5t-105 229.5zM362 311q0 -39 32 -63.5t87 -24.5q121 0 215 82q-17 62 -22 103h-154q-158 0 -158 -97zM977 623h346q-5 66 -49 107.5t-113 41.5q-150 0 -184 -149z" />
    <glyph glyph-name="ccedilla" unicode="&#xe7;" horiz-adv-x="1099" 
d="M70 502q0 224 151 375q154 151 379 151q237 0 420 -201l-197 -190q-95 117 -213 117q-105 0 -174 -71t-69 -181t69 -181t174 -71q133 0 234 131l196 -191q-122 -165 -319 -200l-107 -271h-292l141 275q-176 41 -285 180q-108 138 -108 328z" />
    <glyph glyph-name="egrave" unicode="&#xe8;" horiz-adv-x="1116" 
d="M70 496q0 232 137 381q139 151 356 151q230 0 357 -154t127 -360l-3 -86h-679q12 -83 72.5 -133.5t152.5 -50.5q155 0 246 116l192 -180q-164 -203 -430 -203q-228 0 -379 142q-149 143 -149 377zM211 1436h369l151 -291h-274zM379 623h360q-5 64 -52 106.5t-118 42.5
q-76 0 -126 -40.5t-64 -108.5z" />
    <glyph glyph-name="eacute" unicode="&#xe9;" horiz-adv-x="1116" 
d="M70 496q0 232 137 381q139 151 356 151q230 0 357 -154t127 -360q0 -34 -3 -86h-679q12 -83 72.5 -133.5t152.5 -50.5q155 0 246 116l192 -180q-164 -203 -430 -203q-228 0 -379 142q-149 143 -149 377zM379 623h360q-5 64 -52 106.5t-118 42.5q-76 0 -126 -40.5
t-64 -108.5zM379 1145l151 291h369l-246 -291h-274z" />
    <glyph glyph-name="ecircumflex" unicode="&#xea;" horiz-adv-x="1116" 
d="M70 496q0 232 137 381q139 151 356 151q230 0 357 -154t127 -360l-3 -86h-679q12 -83 72.5 -133.5t152.5 -50.5q155 0 246 116l192 -180q-164 -203 -430 -203q-228 0 -379 142q-149 143 -149 377zM205 1145l186 291h334l186 -291h-252l-102 121l-100 -121h-252zM379 623
h360q-5 64 -52 106.5t-118 42.5q-76 0 -126 -40.5t-64 -108.5z" />
    <glyph glyph-name="edieresis" unicode="&#xeb;" horiz-adv-x="1116" 
d="M70 496q0 232 137 381q139 151 356 151q230 0 357 -154t127 -360q0 -34 -3 -86h-679q12 -83 72.5 -133.5t152.5 -50.5q155 0 246 116l192 -180q-164 -203 -430 -203q-228 0 -379 142q-149 143 -149 377zM195 1307q0 62 44 106.5t107 44.5q62 0 108 -45t46 -106
t-46 -106.5t-108 -45.5q-63 0 -107 44.5t-44 107.5zM379 623h360q-5 64 -52 106.5t-118 42.5q-76 0 -126 -40.5t-64 -108.5zM629 1307q0 62 44 106.5t107 44.5q62 0 108 -45t46 -106t-46 -106.5t-108 -45.5q-63 0 -107 44.5t-44 107.5z" />
    <glyph glyph-name="igrave" unicode="&#xec;" horiz-adv-x="544" 
d="M-80 1436h369l151 -291h-274zM129 0v1004h293v-1004h-293z" />
    <glyph glyph-name="iacute" unicode="&#xed;" horiz-adv-x="548" 
d="M106 1145l152 291h369l-246 -291h-275zM129 0v1004h293v-1004h-293z" />
    <glyph glyph-name="icircumflex" unicode="&#xee;" horiz-adv-x="552" 
d="M-76 1145l187 291h333l187 -291h-252l-103 121l-100 -121h-252zM129 0v1004h293v-1004h-293z" />
    <glyph glyph-name="idieresis" unicode="&#xef;" horiz-adv-x="598" 
d="M-72 1307q0 62 44.5 106.5t107.5 44.5q62 0 107.5 -45t45.5 -106t-45.5 -106.5t-107.5 -45.5q-63 0 -107.5 44.5t-44.5 107.5zM152 0v1004h292v-1004h-292zM362 1307q0 62 44.5 106.5t107.5 44.5q62 0 108 -45t46 -106t-46 -106.5t-108 -45.5q-63 0 -107.5 44.5
t-44.5 107.5z" />
    <glyph glyph-name="eth" unicode="&#xf0;" horiz-adv-x="1171" 
d="M82 461q0 214 139 344q137 131 330 131q57 0 100 -16l-106 143l-226 -129v221l109 62l-162 219h320l65 -93l199 115v-221l-86 -49l131 -180q184 -254 184 -506q0 -212 -133 -369q-132 -156 -364 -156q-223 0 -361 138q-139 139 -139 346zM379 455q0 -88 54 -146.5
t140 -58.5q89 0 143 58.5t54 146.5q0 90 -54 148.5t-143 58.5q-86 0 -140 -59t-54 -148z" />
    <glyph glyph-name="ntilde" unicode="&#xf1;" horiz-adv-x="1167" 
d="M129 0v1004h287v-70q98 94 237 94q188 0 299 -117.5t111 -326.5v-584h-293v561q0 90 -42 143.5t-124 53.5q-184 0 -184 -256v-502h-291zM258 1180q0 108 54.5 182t144.5 74q23 0 88 -15l84 -26q44 -13 61 -13q52 0 55 54h187q0 -107 -55 -181.5t-144 -74.5q-10 0 -88 16
l-84 27q-38 10 -61 10q-53 0 -56 -53h-186z" />
    <glyph glyph-name="ograve" unicode="&#xf2;" horiz-adv-x="1200" 
d="M70 502q0 224 151 375q154 151 379 151q226 0 377 -151q153 -150 153 -375q0 -224 -151 -375q-150 -150 -379 -150t-379 150q-151 151 -151 375zM236 1436h368l152 -291h-275zM367 502q0 -112 65 -183t168 -71t168 71q66 72 66 183q0 110 -66 182t-168 72t-168 -72
q-65 -71 -65 -182z" />
    <glyph glyph-name="oacute" unicode="&#xf3;" horiz-adv-x="1200" 
d="M70 502q0 224 151 375q154 151 379 151q226 0 377 -151q153 -150 153 -375q0 -224 -151 -375q-150 -150 -379 -150t-379 150q-151 151 -151 375zM367 502q0 -112 65 -183t168 -71t168 71q66 72 66 183q0 110 -66 182t-168 72t-168 -72q-65 -71 -65 -182zM412 1145
l151 291h369l-246 -291h-274z" />
    <glyph glyph-name="ocircumflex" unicode="&#xf4;" horiz-adv-x="1200" 
d="M70 502q0 224 151 375q154 151 379 151q226 0 377 -151q153 -150 153 -375q0 -224 -151 -375q-150 -150 -379 -150t-379 150q-151 151 -151 375zM250 1145l186 291h334l186 -291h-251l-103 121l-100 -121h-252zM367 502q0 -112 65 -183t168 -71t168 71q66 72 66 183
q0 110 -66 182t-168 72t-168 -72q-65 -71 -65 -182z" />
    <glyph glyph-name="otilde" unicode="&#xf5;" horiz-adv-x="1200" 
d="M70 502q0 224 151 375q154 151 379 151q226 0 377 -151q153 -150 153 -375q0 -224 -151 -375q-150 -150 -379 -150t-379 150q-151 151 -151 375zM252 1180q0 108 54.5 182t144.5 74q23 0 88 -15l84 -26q44 -13 61 -13q52 0 55 54h187q0 -107 -55 -181.5t-144 -74.5
q-10 0 -88 16l-84 27q-38 10 -61 10q-53 0 -56 -53h-186zM367 502q0 -112 65 -183t168 -71t168 71q66 72 66 183q0 110 -66 182t-168 72t-168 -72q-65 -71 -65 -182z" />
    <glyph glyph-name="odieresis" unicode="&#xf6;" horiz-adv-x="1200" 
d="M70 502q0 224 151 375q154 151 379 151q226 0 377 -151q153 -150 153 -375q0 -224 -151 -375q-150 -150 -379 -150t-379 150q-151 151 -151 375zM233 1307q0 62 44.5 106.5t107.5 44.5q62 0 108 -45t46 -106t-46 -106.5t-108 -45.5q-63 0 -107.5 44.5t-44.5 107.5z
M367 502q0 -112 65 -183t168 -71t168 71q66 72 66 183q0 110 -66 182t-168 72t-168 -72q-65 -71 -65 -182zM668 1307q0 62 44 106.5t107 44.5q62 0 108 -45t46 -106t-46 -106.5t-108 -45.5q-63 0 -107 44.5t-44 107.5z" />
    <glyph glyph-name="divide" unicode="&#xf7;" horiz-adv-x="1329" 
d="M152 399v252h1026v-252h-1026zM500 139q0 69 47.5 117.5t116.5 48.5q68 0 116.5 -48.5t48.5 -117.5q0 -67 -48.5 -114.5t-116.5 -47.5q-69 0 -116.5 47t-47.5 115zM500 907q0 69 47.5 117.5t116.5 48.5q68 0 116.5 -48.5t48.5 -117.5q0 -67 -48.5 -114.5t-116.5 -47.5
q-69 0 -116.5 47t-47.5 115z" />
    <glyph glyph-name="oslash" unicode="&#xf8;" horiz-adv-x="1222" 
d="M82 502q0 224 151 375q154 151 379 151q111 0 211 -41l66 92l160 -114l-62 -86q156 -150 156 -377q0 -223 -152 -375q-150 -150 -379 -150q-118 0 -225 46l-68 -97l-157 113l65 94q-145 151 -145 369zM379 502q0 -66 24 -119l256 367q-24 6 -47 6q-102 0 -167.5 -71.5
t-65.5 -182.5zM551 256q21 -8 61 -8q102 0 168 71.5t66 182.5q0 71 -31 131z" />
    <glyph glyph-name="ugrave" unicode="&#xf9;" horiz-adv-x="1144" 
d="M104 420v584h293v-572q0 -86 40 -136t114 -50q172 0 172 243v515h293v-1004h-287v70q-90 -93 -250 -93q-177 0 -276 116.5t-99 326.5zM205 1436h368l152 -291h-274z" />
    <glyph glyph-name="uacute" unicode="&#xfa;" horiz-adv-x="1144" 
d="M104 420v584h293v-572q0 -86 40 -136t114 -50q172 0 172 243v515h293v-1004h-287v70q-90 -93 -250 -93q-177 0 -276 116.5t-99 326.5zM393 1145l152 291h368l-245 -291h-275z" />
    <glyph glyph-name="ucircumflex" unicode="&#xfb;" horiz-adv-x="1144" 
d="M104 420v584h293v-572q0 -86 40 -136t114 -50q172 0 172 243v515h293v-1004h-287v70q-90 -93 -250 -93q-177 0 -276 116.5t-99 326.5zM199 1145l186 291h334l186 -291h-252l-102 121l-100 -121h-252z" />
    <glyph glyph-name="udieresis" unicode="&#xfc;" horiz-adv-x="1144" 
d="M104 420v584h293v-572q0 -86 40 -136t114 -50q172 0 172 243v515h293v-1004h-287v70q-90 -93 -250 -93q-177 0 -276 116.5t-99 326.5zM184 1307q0 62 44.5 106.5t107.5 44.5q62 0 107.5 -45t45.5 -106t-45.5 -106.5t-107.5 -45.5q-63 0 -107.5 44.5t-44.5 107.5z
M618 1307q0 62 44.5 106.5t107.5 44.5q62 0 108 -45t46 -106t-46 -106.5t-108 -45.5q-63 0 -107.5 44.5t-44.5 107.5z" />
    <glyph glyph-name="yacute" unicode="&#xfd;" horiz-adv-x="1118" 
d="M12 1004h324l225 -621l234 621h311l-559 -1401h-307l163 397zM397 1145l152 291h369l-246 -291h-275z" />
    <glyph glyph-name="thorn" unicode="&#xfe;" horiz-adv-x="1249" 
d="M129 -397v1833h287v-504q104 96 262 96q211 0 356 -145q146 -146 146 -381q0 -233 -146 -379t-356 -146q-158 0 -258 86v-460h-291zM416 502q0 -115 65 -189q67 -73 168 -73q102 0 166 73q68 74 68 189q0 114 -68 188q-65 74 -166 74q-100 0 -168 -74q-65 -74 -65 -188z
" />
    <glyph glyph-name="ydieresis" unicode="&#xff;" horiz-adv-x="1140" 
d="M25 1004h323l225 -621l234 621h311l-559 -1401h-307l164 397zM199 1307q0 62 44 106.5t107 44.5q62 0 108 -45t46 -106t-46 -106.5t-108 -45.5q-63 0 -107 44.5t-44 107.5zM633 1307q0 62 44 106.5t107 44.5q62 0 108 -45t46 -106t-46 -106.5t-108 -45.5q-63 0 -107 44.5
t-44 107.5z" />
    <glyph glyph-name="OE" unicode="&#x152;" horiz-adv-x="1966" 
d="M82 719q0 317 211 516q213 201 526 201h1030v-281h-637v-285h603v-276h-603v-313h637v-281h-1030q-315 0 -526 199t-211 520zM395 719q0 -190 117 -316q116 -122 315 -122h80v874h-80q-199 0 -315 -125q-117 -123 -117 -311z" />
    <glyph glyph-name="oe" unicode="&#x153;" horiz-adv-x="1880" 
d="M70 502q0 224 151 375q154 151 379 151q227 0 377 -172q138 172 350 172q227 0 354 -154t127 -360l-2 -86h-678q8 -82 71 -133t159 -51q149 0 229 127l203 -191q-156 -203 -428 -203q-241 0 -385 170q-144 -170 -377 -170q-229 0 -379 150q-151 151 -151 375zM367 502
q0 -111 65.5 -182.5t167.5 -71.5q99 0 164 69.5t70 178.5v16q-1 105 -68 174.5t-166 69.5q-102 0 -167.5 -71.5t-65.5 -182.5zM1141 623h362q-5 64 -52 106.5t-118 42.5q-76 0 -125 -40t-67 -109z" />
    <glyph glyph-name="Ydieresis" unicode="&#x178;" horiz-adv-x="1302" 
d="M25 1436h331l295 -605l297 605h332l-479 -934v-502h-301v502zM283 1669q0 62 44 107t107 45q62 0 108 -45.5t46 -106.5t-46 -106t-108 -45q-63 0 -107 44t-44 107zM717 1669q0 62 44 107t107 45q62 0 108 -45.5t46 -106.5t-46 -106t-108 -45q-63 0 -107 44t-44 107z" />
    <glyph glyph-name="circumflex" unicode="&#x2c6;" horiz-adv-x="1138" 
d="M227 1145l187 291h334l186 -291h-252l-102 121l-101 -121h-252z" />
    <glyph glyph-name="tilde" unicode="&#x2dc;" horiz-adv-x="1189" 
d="M279 1180q0 108 54 182t144 74q23 0 88 -15l84 -26q44 -13 62 -13q52 0 55 54h186q0 -107 -55 -181.5t-143 -74.5q-10 0 -88 16l-84 27q-38 10 -62 10q-52 0 -55 -53h-186z" />
    <glyph glyph-name="uni2000" unicode="&#x2000;" horiz-adv-x="910" 
 />
    <glyph glyph-name="uni2001" unicode="&#x2001;" horiz-adv-x="1821" 
 />
    <glyph glyph-name="uni2002" unicode="&#x2002;" horiz-adv-x="910" 
 />
    <glyph glyph-name="uni2003" unicode="&#x2003;" horiz-adv-x="1821" 
 />
    <glyph glyph-name="uni2004" unicode="&#x2004;" horiz-adv-x="607" 
 />
    <glyph glyph-name="uni2005" unicode="&#x2005;" horiz-adv-x="455" 
 />
    <glyph glyph-name="uni2006" unicode="&#x2006;" horiz-adv-x="303" 
 />
    <glyph glyph-name="uni2007" unicode="&#x2007;" horiz-adv-x="303" 
 />
    <glyph glyph-name="uni2008" unicode="&#x2008;" horiz-adv-x="227" 
 />
    <glyph glyph-name="uni2009" unicode="&#x2009;" horiz-adv-x="364" 
 />
    <glyph glyph-name="uni200A" unicode="&#x200a;" horiz-adv-x="101" 
 />
    <glyph glyph-name="uni2010" unicode="&#x2010;" horiz-adv-x="1028" 
d="M129 406v262h770v-262h-770z" />
    <glyph glyph-name="uni2011" unicode="&#x2011;" horiz-adv-x="1028" 
d="M129 406v262h770v-262h-770z" />
    <glyph glyph-name="figuredash" unicode="&#x2012;" horiz-adv-x="1028" 
d="M129 406v262h770v-262h-770z" />
    <glyph glyph-name="endash" unicode="&#x2013;" horiz-adv-x="1189" 
d="M129 406v262h934v-262h-934z" />
    <glyph glyph-name="emdash" unicode="&#x2014;" horiz-adv-x="1785" 
d="M129 406v262h1528v-262h-1528z" />
    <glyph glyph-name="quoteleft" unicode="&#x2018;" horiz-adv-x="620" 
d="M57 1436h312l194 -480h-282z" />
    <glyph glyph-name="quoteright" unicode="&#x2019;" horiz-adv-x="620" 
d="M35 956l194 480h312l-224 -480h-282z" />
    <glyph glyph-name="quotesinglbase" unicode="&#x201a;" horiz-adv-x="583" 
d="M12 -252l195 485h317l-223 -485h-289z" />
    <glyph glyph-name="quotedblleft" unicode="&#x201c;" horiz-adv-x="1073" 
d="M57 1436h312l194 -480h-282zM512 1436h309l195 -480h-283z" />
    <glyph glyph-name="quotedblright" unicode="&#x201d;" horiz-adv-x="1073" 
d="M35 956l194 480h310l-222 -480h-282zM487 956l195 480h311l-223 -480h-283z" />
    <glyph glyph-name="quotedblbase" unicode="&#x201e;" horiz-adv-x="1034" 
d="M12 -252l195 485h317l-223 -485h-289zM463 -252l194 485h318l-223 -485h-289z" />
    <glyph glyph-name="bullet" unicode="&#x2022;" horiz-adv-x="897" 
d="M152 537q0 125 86 211t211 86q124 0 210 -86t86 -211t-86 -211t-210 -86q-125 0 -211 86t-86 211z" />
    <glyph glyph-name="ellipsis" unicode="&#x2026;" horiz-adv-x="1640" 
d="M106 156q0 74 50 125q51 51 125 51t125 -51q54 -51 54 -125t-54 -125q-51 -51 -125 -51t-125 51q-50 51 -50 125zM644 156q0 74 50 125q51 51 125 51t125 -51q54 -51 54 -125t-54 -125q-51 -51 -125 -51t-125 51q-50 51 -50 125zM1184 156q0 74 49 125q51 51 125 51
t125 -51q54 -51 54 -125t-54 -125q-51 -51 -125 -51t-125 51q-49 51 -49 125z" />
    <glyph glyph-name="uni202F" unicode="&#x202f;" horiz-adv-x="364" 
 />
    <glyph glyph-name="guilsinglleft" unicode="&#x2039;" horiz-adv-x="757" 
d="M82 502l280 502h316l-285 -502l285 -502h-316z" />
    <glyph glyph-name="guilsinglright" unicode="&#x203a;" horiz-adv-x="757" 
d="M57 0l285 502l-285 502h316l280 -502l-280 -502h-316z" />
    <glyph glyph-name="uni205F" unicode="&#x205f;" horiz-adv-x="455" 
 />
    <glyph glyph-name="Euro" unicode="&#x20ac;" horiz-adv-x="1454" 
d="M117 403v250h129q-2 14 -2 62v55h-127v250h172q68 205 225 321.5t371 116.5q151 0 273.5 -57t193.5 -154l-201 -209q-100 142 -268 142q-174 0 -269 -160h390v-250h-457q-2 -12 -2 -55q0 -50 2 -62h457v-250h-388q88 -147 269 -147q96 0 160 31t126 102l201 -217
q-189 -195 -489 -195q-215 0 -368.5 111.5t-223.5 314.5h-174z" />
    <glyph glyph-name="trademark" unicode="&#x2122;" horiz-adv-x="1794" 
d="M47 1229v207h639v-207h-209v-598h-225v598h-205zM791 631v805h278l160 -432l160 432h276v-805h-221v426l-113 -307h-203l-114 307v-426h-223z" />
    <glyph glyph-name="uni25FC" unicode="&#x25fc;" horiz-adv-x="1003" 
d="M0 0v1004h1004v-1004h-1004z" />
    <glyph glyph-name="uniFB01" unicode="&#xfb01;" horiz-adv-x="1261" 
d="M47 735v269h131v28q0 198 118 302t325 104l51 -2v-275h-25q-96 0 -138 -34.5t-42 -110.5v-12h666v-1004h-293v735h-373v-735h-289v735h-131zM817 1288q0 72 49.5 121t118.5 49q72 0 121 -49t49 -121q0 -69 -50.5 -118.5t-119.5 -49.5t-118.5 49.5t-49.5 118.5z" />
    <glyph glyph-name="uniFB02" unicode="&#xfb02;" horiz-adv-x="1284" 
d="M47 735v269h131v28q0 197 118 300.5t325 103.5h534v-1436h-291v1161h-217q-96 0 -138 -34.5t-42 -110.5v-12h221v-269h-221v-735h-289v735h-131z" />
    </font>
</defs>
</svg>
